<?xml version="1.0" standalone="no"?>
<!DOCTYPE svg PUBLIC "-//W3C//DTD SVG 1.1//EN" "http://www.w3.org/Graphics/SVG/1.1/DTD/svg11.dtd" >
<svg xmlns="http://www.w3.org/2000/svg">
  <metadata>Created by iconfont</metadata>
  <defs>
  <font id="iconfont" horiz-adv-x="1024">
    <font-face
      font-family="iconfont"
      font-weight="400"
      font-stretch="normal"
      units-per-em="1024"
      ascent="896"
      descent="-128"
    />
      <missing-glyph />
      
      <glyph glyph-name="folder" unicode="&#58963;" d="M510.4 652.8c8-27.2 33.6-44.8 60.8-44.8h259.2c0 35.2-28.8 64-64 64H504l6.4-19.2zM484.8 736h281.6c70.4 0 128-57.6 128-128v-25.6c30.4-24 51.2-60.8 51.2-102.4v-384c0-70.4-57.6-128-128-128H208c-70.4 0-128 57.6-128 128V672c0 70.4 57.6 128 128 128h164.8c46.4 0 89.6-25.6 112-64z m-112 0H208c-35.2 0-64-28.8-64-64v-576c0-35.2 28.8-64 64-64h608c35.2 0 64 28.8 64 64V480c0 35.2-28.8 64-64 64H574.4c-56 0-105.6 36.8-121.6 89.6l-19.2 57.6c-8 27.2-32 44.8-60.8 44.8zM272 192h256c17.6 0 32-14.4 32-32s-14.4-32-32-32H272c-17.6 0-32 14.4-32 32s14.4 32 32 32z"  horiz-adv-x="1024" />
      
      <glyph glyph-name="file-txt" unicode="&#61377;" d="M568.25 594.9375V834H216.6875C193.30859375 834 174.5 815.19140625 174.5 791.8125v-815.625c0-23.37890625 18.80859375-42.1875 42.1875-42.1875h590.625c23.37890625 0 42.1875 18.80859375 42.1875 42.1875V552.75H610.4375c-23.203125 0-42.1875 18.984375-42.1875 42.1875z m112.5-414.84375c0-11.6015625-9.4921875-21.09375-21.09375-21.09375H364.34375c-11.6015625 0-21.09375 9.4921875-21.09375 21.09375v14.0625c0 11.6015625 9.4921875 21.09375 21.09375 21.09375h295.3125c11.6015625 0 21.09375-9.4921875 21.09375-21.09375v-14.0625z m0 112.5c0-11.6015625-9.4921875-21.09375-21.09375-21.09375H364.34375c-11.6015625 0-21.09375 9.4921875-21.09375 21.09375v14.0625c0 11.6015625 9.4921875 21.09375 21.09375 21.09375h295.3125c11.6015625 0 21.09375-9.4921875 21.09375-21.09375v-14.0625z m0 126.5625v-14.0625c0-11.6015625-9.4921875-21.09375-21.09375-21.09375H364.34375c-11.6015625 0-21.09375 9.4921875-21.09375 21.09375v14.0625c0 11.6015625 9.4921875 21.09375 21.09375 21.09375h295.3125c11.6015625 0 21.09375-9.4921875 21.09375-21.09375z m168.75 200.56640625v-10.72265625H624.5V834h10.72265625c11.25 0 21.97265625-4.39453125 29.8828125-12.3046875l172.08984375-172.265625c7.91015625-7.91015625 12.3046875-18.6328125 12.3046875-29.70703125z"  horiz-adv-x="1024" />
      
      <glyph glyph-name="file-archive" unicode="&#61378;" d="M568.25 594.9375V834h-111.796875v-56.25h-56.25V834H216.6875C193.30859375 834 174.5 815.19140625 174.5 791.8125v-815.625c0-23.37890625 18.80859375-42.1875 42.1875-42.1875h590.625c23.37890625 0 42.1875 18.80859375 42.1875 42.1875V552.75H610.4375c-23.203125 0-42.1875 18.984375-42.1875 42.1875zM343.07421875 777.75h56.25v-56.25h-56.25V777.75z m56.77734375-675c-58.359375 0-101.953125 53.4375-90.3515625 110.56640625L343.953125 384v56.25h56.25v56.25h-56.25v56.25h56.25v56.25h-56.25V665.25h56.25V721.5h56.25v-56.25h-56.25v-56.25h56.25v-56.25h-56.25v-56.25h56.25v-56.25h-56.25v-56.25h38.84765625c10.01953125 0 18.80859375-7.20703125 20.7421875-17.05078125l30.41015625-154.16015625c11.25-56.953125-32.34375-110.0390625-90.3515625-110.0390625z m57.48046875 93.1640625c0-26.19140625-25.48828125-47.4609375-56.953125-47.4609375S343.25 169.546875 343.25 195.9140625c0 26.19140625 25.48828125 47.4609375 56.953125 47.4609375s57.12890625-21.26953125 57.12890625-47.4609375zM849.5 619.72265625v-10.72265625H624.5V834h10.72265625c11.25 0 21.97265625-4.39453125 29.8828125-12.3046875l172.08984375-172.265625c7.91015625-7.91015625 12.3046875-18.6328125 12.3046875-29.70703125z"  horiz-adv-x="1024" />
      
      <glyph glyph-name="file-audio" unicode="&#61379;" d="M568.25 594.9375V834H216.6875C193.30859375 834 174.5 815.19140625 174.5 791.8125v-815.625c0-23.37890625 18.80859375-42.1875 42.1875-42.1875h590.625c23.37890625 0 42.1875 18.80859375 42.1875 42.1875V552.75H610.4375c-23.203125 0-42.1875 18.984375-42.1875 42.1875z m-112.5-471.09375c0-18.80859375-22.67578125-28.125-36.03515625-14.94140625L357.3125 173.0625H308.09375c-11.6015625 0-21.09375 9.4921875-21.09375 21.09375v98.4375c0 11.6015625 9.4921875 21.09375 21.09375 21.09375h49.21875l62.40234375 64.16015625c13.359375 13.359375 36.03515625 3.8671875 36.03515625-14.94140625v-239.0625z m58.359375 83.671875c15.99609375 16.34765625 15.99609375 42.36328125 0 58.7109375-38.84765625 40.078125 21.4453125 98.7890625 60.46875 58.88671875 47.8125-49.04296875 47.8125-127.265625 0-176.484375-38.3203125-39.19921875-100.01953125 18.28125-60.46875 58.88671875z m151.171875 205.83984375c95.625-98.26171875 95.625-254.53125 0-352.96875-38.3203125-39.375-100.1953125 18.10546875-60.46875 58.88671875 63.6328125 65.390625 63.80859375 169.62890625 0 235.1953125-38.84765625 40.078125 21.62109375 98.96484375 60.46875 58.88671875zM849.5 619.72265625v-10.72265625H624.5V834h10.72265625c11.25 0 21.97265625-4.39453125 29.8828125-12.3046875l172.08984375-172.265625c7.91015625-7.91015625 12.3046875-18.6328125 12.3046875-29.70703125z"  horiz-adv-x="1024" />
      
      <glyph glyph-name="file-excel" unicode="&#61382;" d="M568.25 594.9375V834H216.6875C193.30859375 834 174.5 815.19140625 174.5 791.8125v-815.625c0-23.37890625 18.80859375-42.1875 42.1875-42.1875h590.625c23.37890625 0 42.1875 18.80859375 42.1875 42.1875V552.75H610.4375c-23.203125 0-42.1875 18.984375-42.1875 42.1875z m105.64453125-187.20703125L568.25 243.375l105.64453125-164.35546875c8.96484375-14.0625-1.0546875-32.51953125-17.75390625-32.51953125h-61.34765625c-7.734375 0-14.94140625 4.21875-18.6328125 11.07421875C541.70703125 121.20703125 512 178.3359375 512 178.3359375c-11.25-26.015625-17.578125-35.15625-64.3359375-120.9375-3.69140625-6.85546875-10.72265625-11.07421875-18.45703125-11.07421875H367.859375c-16.69921875 0-26.71875 18.45703125-17.75390625 32.51953125l105.99609375 164.35546875-105.99609375 164.35546875c-9.140625 14.0625 1.0546875 32.51953125 17.75390625 32.51953125h61.171875c7.734375 0 14.94140625-4.21875 18.6328125-11.07421875 45.87890625-85.78125 35.15625-59.0625 64.3359375-120.41015625 0 0 10.72265625 20.56640625 64.3359375 120.41015625 3.69140625 6.85546875 10.8984375 11.07421875 18.6328125 11.07421875H656.140625c16.69921875 0.17578125 26.71875-18.28125 17.75390625-32.34375zM849.5 619.72265625v-10.72265625H624.5V834h10.72265625c11.25 0 21.97265625-4.39453125 29.8828125-12.3046875l172.08984375-172.265625c7.91015625-7.91015625 12.3046875-18.6328125 12.3046875-29.70703125z"  horiz-adv-x="1024" />
      
      <glyph glyph-name="file-image" unicode="&#61384;" d="M849.5 619.6505859399999V609H624.5V834h10.65058594a42.1875 42.1875 0 0 0 29.83007812-12.35566406l172.16191406-172.16191406a42.19101562 42.19101562 0 0 0 12.35742188-29.83183594zM610.4375 552.75c-23.203125 0-42.1875 18.984375-42.1875 42.1875V834H216.6875C193.38769531 834 174.5 815.11230469 174.5 791.8125v-815.625c0-23.29980469 18.88769531-42.1875 42.1875-42.1875h590.625c23.29980469 0 42.1875 18.88769531 42.1875 42.1875V552.75H610.4375z m-238.10449219-28.125c46.59960938 0 84.375-37.77539063 84.375-84.375s-37.77539063-84.375-84.375-84.375-84.375 37.77539063-84.375 84.375 37.77714844 84.375 84.375 84.375z m365.625-421.875h-450l0.85253906 85.22753906L358.27050781 257.4375c8.23710938 8.23710938 20.74042969 7.38457031 28.97753907-0.85253906L456.70800781 187.125 638.66796875 369.08496094c8.23710938 8.23710938 21.59296875 8.23710938 29.83183594 0L737.95800781 299.625v-196.875z"  horiz-adv-x="1024" />
      
      <glyph glyph-name="file-pdf" unicode="&#61388;" d="M494.24609375 383.82421875c-8.7890625 28.125-8.61328125 82.44140625-3.515625 82.44140625 14.765625 0 13.359375-64.86328125 3.515625-82.44140625z m-2.98828125-82.96875c-13.53515625-35.5078125-30.41015625-76.11328125-49.921875-110.21484375 32.16796875 12.3046875 68.5546875 30.234375 110.56640625 38.49609375-22.32421875 16.875-43.76953125 41.1328125-60.64453125 71.71875zM325.84765625 81.48046875c0-1.40625 23.203125 9.4921875 61.34765625 70.6640625-11.77734375-11.07421875-51.15234375-43.06640625-61.34765625-70.6640625zM610.4375 552.75h239.0625v-576.5625c0-23.37890625-18.80859375-42.1875-42.1875-42.1875H216.6875c-23.37890625 0-42.1875 18.80859375-42.1875 42.1875V791.8125C174.5 815.19140625 193.30859375 834 216.6875 834h351.5625v-239.0625c0-23.203125 18.984375-42.1875 42.1875-42.1875z m-14.0625-301.9921875c-35.15625 21.4453125-58.53515625 50.9765625-75.05859375 94.5703125 7.91015625 32.51953125 20.390625 81.9140625 10.8984375 112.8515625-8.26171875 51.6796875-74.53125 46.58203125-84.0234375 11.953125-8.7890625-32.16796875-0.703125-77.51953125 14.23828125-135.3515625-20.390625-48.515625-50.44921875-113.5546875-71.71875-150.8203125-0.17578125 0-0.17578125-0.17578125-0.3515625-0.17578125-47.63671875-24.43359375-129.375-78.22265625-95.80078125-119.53125 9.84375-12.12890625 28.125-17.578125 37.79296875-17.578125 31.46484375 0 62.75390625 31.640625 107.40234375 108.6328125 45.3515625 14.94140625 95.09765625 33.57421875 138.8671875 40.78125 38.14453125-20.7421875 82.79296875-34.27734375 112.5-34.27734375 51.328125 0 54.84375 56.25 34.62890625 76.2890625-24.43359375 23.90625-95.44921875 17.05078125-129.375 12.65625zM837.1953125 649.4296875L664.9296875 821.6953125c-7.91015625 7.91015625-18.6328125 12.3046875-29.8828125 12.3046875h-10.546875v-225h225v10.72265625c0 11.07421875-4.39453125 21.796875-12.3046875 29.70703125z m-130.25390625-448.76953125c7.20703125 4.74609375-4.39453125 20.91796875-75.234375 15.8203125 65.21484375-27.7734375 75.234375-15.8203125 75.234375-15.8203125z"  horiz-adv-x="1024" />
      
      <glyph glyph-name="file-powerpoint" unicode="&#61389;" d="M514.98828125 357.28125c15.46875 0 27.24609375-4.74609375 35.68359375-14.23828125 16.875-19.16015625 17.2265625-57.48046875-0.3515625-77.51953125-8.61328125-9.84375-20.91796875-14.94140625-37.08984375-14.94140625h-47.28515625v106.69921875h49.04296875zM837.1953125 649.4296875L664.9296875 821.6953125c-7.91015625 7.91015625-18.6328125 12.3046875-29.8828125 12.3046875h-10.546875v-225h225v10.72265625c0 11.07421875-4.39453125 21.796875-12.3046875 29.70703125z m-268.9453125-54.4921875V834H216.6875C193.30859375 834 174.5 815.19140625 174.5 791.8125v-815.625c0-23.37890625 18.80859375-42.1875 42.1875-42.1875h590.625c23.37890625 0 42.1875 18.80859375 42.1875 42.1875V552.75H610.4375c-23.203125 0-42.1875 18.984375-42.1875 42.1875z m93.1640625-290.390625c0-158.73046875-156.09375-136.40625-195.29296875-136.40625V67.59375c0-11.6015625-9.4921875-21.09375-21.09375-21.09375h-54.140625c-11.6015625 0-21.09375 9.4921875-21.09375 21.09375V418.8046875c0 11.6015625 9.4921875 21.09375 21.09375 21.09375h142.3828125c78.22265625 0 128.14453125-57.65625 128.14453125-135.3515625z"  horiz-adv-x="1024" />
      
      <glyph glyph-name="file-video" unicode="&#61392;" d="M849.5 619.6505859399999V609H624.5V834h10.65058594c11.18847656 0 21.91992188-4.44550781 29.83183594-12.35566406l172.16191406-172.16191406A42.19628906 42.19628906 0 0 0 849.5 619.6505859399999zM568.25 594.9375V834H216.6875C193.38769531 834 174.5 815.11230469 174.5 791.8125v-815.625c0-23.29980469 18.88769531-42.1875 42.1875-42.1875h590.625c23.29980469 0 42.1875 18.88769531 42.1875 42.1875V552.75H610.4375c-23.203125 0-42.1875 18.984375-42.1875 42.1875z m168.75-253.153125v-196.80996094c0-37.69628906-45.60292969-56.24648438-72.01933594-29.83183593L568.25 211.83808594000004V144.9375c0-23.29980469-18.88769531-42.1875-42.1875-42.1875H329.1875c-23.29980469 0-42.1875 18.88769531-42.1875 42.1875V341.8125c0 23.29980469 18.88769531 42.1875 42.1875 42.1875h196.875c23.29980469 0 42.1875-18.88769531 42.1875-42.1875v-66.90058594l96.73066406 96.70253907c26.38652344 26.38476563 72.01933594 7.89433594 72.01933594-29.83007813z"  horiz-adv-x="1024" />
      
      <glyph glyph-name="file-word" unicode="&#61393;" d="M568.25 594.9375V834H216.6875C193.30859375 834 174.5 815.19140625 174.5 791.8125v-815.625c0-23.37890625 18.80859375-42.1875 42.1875-42.1875h590.625c23.37890625 0 42.1875 18.80859375 42.1875 42.1875V552.75H610.4375c-23.203125 0-42.1875 18.984375-42.1875 42.1875z m100.37109375-210.9375H710.6328125c13.53515625 0 23.5546875-12.48046875 20.56640625-25.83984375l-66.796875-295.3125c-2.109375-9.66796875-10.72265625-16.34765625-20.56640625-16.34765625h-66.796875c-9.66796875 0-18.10546875 6.6796875-20.390625 15.99609375-45.3515625 181.93359375-36.5625 142.734375-45 194.23828125h-0.87890625c-1.93359375-25.13671875-4.21875-30.5859375-45-194.23828125-2.28515625-9.31640625-10.72265625-15.99609375-20.390625-15.99609375H380.1640625c-9.84375 0-18.45703125 6.85546875-20.56640625 16.5234375l-66.4453125 295.3125c-2.98828125 13.18359375 7.03125 25.6640625 20.56640625 25.6640625h43.06640625c10.01953125 0 18.80859375-7.03125 20.7421875-17.05078125 27.421875-137.109375 35.33203125-192.48046875 36.9140625-214.8046875 2.8125 17.9296875 12.83203125 57.48046875 51.6796875 215.68359375 2.28515625 9.4921875 10.72265625 15.99609375 20.56640625 15.99609375h51.15234375c9.84375 0 18.28125-6.6796875 20.56640625-16.171875 42.1875-176.484375 50.625-217.96875 52.03125-227.4609375-0.3515625 19.6875-4.5703125 31.2890625 37.96875 227.109375 1.7578125 9.84375 10.37109375 16.69921875 20.21484375 16.69921875zM849.5 619.72265625v-10.72265625H624.5V834h10.72265625c11.25 0 21.97265625-4.39453125 29.8828125-12.3046875l172.08984375-172.265625c7.91015625-7.91015625 12.3046875-18.6328125 12.3046875-29.70703125z"  horiz-adv-x="1024" />
      
      <glyph glyph-name="folderfill" unicode="&#61403;" d="M877.625 609H540.125l-112.5 112.5H146.375C99.77539062 721.5 62 683.72460938 62 637.125v-506.25c0-46.59960938 37.77539063-84.375 84.375-84.375h731.25c46.59960938 0 84.375 37.77539063 84.375 84.375V524.625c0 46.59960938-37.77539063 84.375-84.375 84.375z"  horiz-adv-x="1024" />
      
      <glyph glyph-name="file" unicode="&#58898;" d="M842.24 540.586667l-232.106667 256a42.666667 42.666667 0 0 1-31.573333 14.08h-298.666667A107.946667 107.946667 0 0 1 170.666667 704v-640A107.946667 107.946667 0 0 1 279.893333-42.66666699999996h464.213334A107.946667 107.946667 0 0 1 853.333333 64V512a42.666667 42.666667 0 0 1-11.093333 28.586667zM753.066667 512h-168.106667a33.706667 33.706667 0 0 0-30.293333 36.266667V725.333333h4.693333z m-8.96-469.333333H279.893333a22.613333 22.613333 0 0 0-23.893333 21.333333v640a22.613333 22.613333 0 0 0 23.893333 21.333333H469.333333v-177.066666A119.04 119.04 0 0 1 584.96 426.666667H768v-362.666667a22.613333 22.613333 0 0 0-23.893333-21.333333z"  horiz-adv-x="1024" />
      
      <glyph glyph-name="filefill" unicode="&#58934;" d="M842.24 583.253333l-189.44 213.333334a42.666667 42.666667 0 0 1-31.573333 14.08h-341.333334A107.946667 107.946667 0 0 1 170.666667 704v-640A107.946667 107.946667 0 0 1 279.893333-42.66666699999996h464.213334A107.946667 107.946667 0 0 1 853.333333 64V554.666667a42.666667 42.666667 0 0 1-11.093333 28.586666zM597.333333 725.333333l159.573334-170.666666h-128a33.706667 33.706667 0 0 0-31.573334 36.266666z"  horiz-adv-x="1024" />
      
      <glyph glyph-name="PC" unicode="&#58910;" d="M920.93466298 744.02713184H199.02085341c-12.4609377 0-23.06233037-4.38746748-31.92991172-13.21534337-8.76831767-8.77493584-13.22196153-19.38956309-13.22196153-31.80417801v-449.96360362c0-12.42784951 4.45364385-23.00277217 13.22196153-31.83064806 8.86758222-8.76831767 19.4689749-13.18225606 31.92991172-13.18225605h721.91380957c12.48079042 0 23.10865401 4.41393838 31.8968244 13.18225605 8.86096406 8.82787588 13.25504971 19.40279854 13.2550497 31.83064806V699.00761046c0 12.41461494-4.39408565 23.02924219-13.26166697 31.80417802-8.78155313 8.82787588-19.40941582 13.21534423-31.89020713 13.21534336M198.99438338 834h721.91380957c37.34972579 0 69.26640204-13.18887334 95.71032509-39.56000362 26.44392305-26.38436484 39.63941455-58.15545469 39.63941457-95.42576865v-449.97022089c0-37.24384394-13.19549151-69.074492-39.63941457-95.43238595-26.44392305-26.3711294-58.36060019-39.56000362-95.71032509-39.5600036H605.07007412v-89.99933819h135.37621053c12.45432041 0 23.09541856-4.38746748 31.89682443-13.21534423 8.84772949-8.76831767 13.24181426-19.38956309 13.24181424-31.80417804 0-12.42784951-4.39408565-23.04247763-13.24843242-31.79755985-8.80140586-8.84111133-19.43588672-13.22857881-31.89020625-13.22857969H379.47614443c-12.47417315 0-23.0821831 4.38746748-31.92991262 13.22857969-8.80140586 8.7550831-13.22196153 19.36971036-13.22196151 31.79755985 0 12.42123225 4.42717294 23.02924219 13.22196151 31.80417804 8.84772949 8.82787588 19.45573945 13.21534423 31.92991262 13.21534423h135.36297509v89.99933819H198.99438338c-37.3761958 0-69.28625566 13.18887334-95.71032596 39.5600036C76.84013435 179.96951484 63.61817283 211.80016289000002 63.61817283 249.04400683999995V699.00761046C63.61817283 736.28454171 76.84013435 768.05563154 103.28405742 794.43999638 129.71474588 820.81112666 161.61818758 834 198.99438338 834"  horiz-adv-x="1129" />
      
      <glyph glyph-name="facebook" unicode="&#58990;" d="M887.32812473 805.875H136.67187527C110.97265598 805.875 90.125 785.02734402 90.125 759.32812473v-750.65624946C90.125-17.062499730000013 110.97265598-37.875 136.67187527-37.875h404.08593696v326.7421875H430.75390598v127.30078125h110.00390625V510.21093723c0 108.94921875 66.58593777 168.22265625 163.79296875 168.22265625 46.58203098 0 86.62500027-3.41015652 98.296875-4.95703125v-113.90625h-67.53515571c-52.734375 0-63.00000027-25.34765652-63.00000027-62.26171821v-81.24609402h125.99999973l-16.34765625-127.6171875H672.3125V-37.875h214.98046902c25.76953152 0 46.58203098 20.81250027 46.58203098 46.54687527V759.32812473C933.875 785.02734402 913.06249973 805.875 887.32812473 805.875"  horiz-adv-x="1024" />
      
      <glyph glyph-name="email" unicode="&#58976;" d="M848.52173955 734.21739113L175.47826045 734.21739113c-60.65217422 0-111.52173955-50.86956533-111.52173956-111.52173957l0-475.43478223c0-60.65217422 50.86956533-111.52173955 111.52173956-111.52173954l671.08695645 0c60.65217422 0 111.52173955 50.86956533 111.52173954 111.52173954L958.08695644 622.69565244C960.04347823 683.34782578 909.17391289 734.21739113 848.52173955 734.21739113L848.52173955 734.21739113zM903.30434756 117.91304356c0-17.60869599-11.73913066-27.39130401-27.391304-27.39130401L148.08695645 90.52173955C132.43478223 90.52173955 120.69565244 102.26086934 120.69565244 117.91304356L120.69565244 650.08695644C120.69565244 665.73913066 132.43478223 677.47826045 148.08695645 677.47826045l727.8260871 0C891.56521777 677.47826045 903.30434756 665.73913066 903.30434756 650.08695644L903.30434756 117.91304356 903.30434756 117.91304356zM772.21739113 560.08695644L531.56521777 358.56521777c-11.73913066-11.73913066-27.39130401-11.73913066-41.08695644 1e-8L249.82608711 560.08695644c-11.73913066 7.82608711-27.39130401 7.82608711-37.17391289-1.95652177-11.73913066-11.73913066-11.73913066-31.30434756 1.95652177-41.08695644l271.95652178-226.95652179c13.69565244-11.73913066 37.17391289-11.73913066 50.86956533 0l271.95652179 226.95652179c11.73913066 11.73913066 13.69565244 31.30434756 1.95652177 41.08695644C799.60869599 567.91304355 783.95652177 567.91304355 772.21739113 560.08695644L772.21739113 560.08695644z"  horiz-adv-x="1024" />
      
      <glyph glyph-name="instagram" unicode="&#59519;" d="M512 602.77333333c-121.06666667 0-218.77333333-97.70666667-218.77333333-218.77333333S390.93333333 165.22666667 512 165.22666667 730.77333333 262.93333333 730.77333333 384 633.06666667 602.77333333 512 602.77333333z m0-360.96c-78.29333333 0-142.18666667 63.89333333-142.18666667 142.18666667S433.70666667 526.18666667 512 526.18666667 654.18666667 462.29333333 654.18666667 384 590.29333333 241.81333332999998 512 241.81333332999998zM739.73333333 662.72c-28.26666667 0-51.09333333-22.82666667-51.09333333-51.09333333s22.82666667-51.09333333 51.09333333-51.09333334 51.09333333 22.72 51.09333334 51.09333334c-0.10666667 28.37333333-22.82666667 51.09333333-51.09333334 51.09333333zM938.45333333 384c0 58.88 0.53333333 117.22666667-2.77333333 176-3.30666667 68.26666667-18.88 128.85333333-68.8 178.77333333-50.02666667 50.02666667-110.50666667 65.49333333-178.77333333 68.8-58.88 3.30666667-117.22666667 2.77333333-176 2.77333334-58.88 0-117.22666667 0.53333333-176-2.77333334-68.26666667-3.30666667-128.85333333-18.88-178.77333334-68.8C107.30666667 688.74666667 91.84 628.26666667 88.53333333 560c-3.30666667-58.88-2.77333333-117.22666667-2.77333333-176s-0.53333333-117.22666667 2.77333333-176c3.30666667-68.26666667 18.88-128.85333333 68.8-178.77333333 50.02666667-50.02666667 110.50666667-65.49333333 178.77333334-68.8 58.88-3.30666667 117.22666667-2.77333333 176-2.77333334 58.88 0 117.22666667-0.53333333 176 2.77333334 68.26666667 3.30666667 128.85333333 18.88 178.77333333 68.8 50.02666667 50.02666667 65.49333333 110.50666667 68.8 178.77333333 3.41333333 58.77333333 2.77333333 117.12 2.77333333 176z m-93.86666666-251.52c-7.78666667-19.41333333-17.17333333-33.92-32.21333334-48.85333333-15.04-15.04-29.44-24.42666667-48.85333333-32.21333334C707.41333333 29.120000000000005 574.18666667 34.13333333000003 512 34.13333333000003c-62.18666667 0-195.52-5.01333333-251.62666667 17.17333334-19.41333333 7.78666667-33.92 17.17333333-48.85333333 32.21333333-15.04 15.04-24.42666667 29.44-32.21333333 48.85333333C157.12 188.58666667 162.13333333 321.81333333 162.13333333 384c0 62.18666667-5.01333333 195.52 17.17333334 251.62666667 7.78666667 19.41333333 17.17333333 33.92 32.21333333 48.85333333s29.44 24.42666667 48.85333333 32.21333333C316.48 738.88 449.81333333 733.86666667 512 733.86666667s195.52 5.01333333 251.62666667-17.17333334c19.41333333-7.78666667 33.92-17.17333333 48.85333333-32.21333333 15.04-15.04 24.42666667-29.44 32.21333333-48.85333333C866.88 579.52 861.86666667 446.18666667 861.86666667 384c0-62.18666667 5.01333333-195.41333333-17.28-251.52z"  horiz-adv-x="1024" />
      
      <glyph glyph-name="pinterest" unicode="&#59304;" d="M467.669333 357.76c0.426667-1.408 0.768-2.858667 1.024-4.352C480.768 284.71466699999996 512.426667 256 573.013333 256 669.610667 256 768 375.893333 768 500.906667 768 631.168 663.082667 725.333333 493.056 725.333333 345.728 725.333333 256 616.5333330000001 256 500.906667c0-56.874667 11.690667-93.653333 32.085333-112.512a42.666667 42.666667 0 1 0-57.984-62.634667C189.482667 363.39200000000005 170.666667 422.485333 170.666667 500.906667 170.666667 660.48 294.570667 810.666667 493.056 810.666667 708.266667 810.666667 853.333333 680.490667 853.333333 500.906667c0-168.789333-132.437333-330.24-280.32-330.24-57.514667 0-103.424 18.474667-136.149333 53.546666l-53.973333-233.813333a42.666667 42.666667 0 1 0-83.114667 19.2l128 554.666667a42.666667 42.666667 0 0 0 83.114667-19.2l-43.221334-187.306667z"  horiz-adv-x="1024" />
      
      <glyph glyph-name="whatsapp" unicode="&#59191;" d="M809.94921875 683.26757813c-79.1015625 79.1015625-184.5703125 122.60742188-296.63085938 122.60742187C283.92382812 805.875 95.3984375 618.66796875 95.3984375 387.95507813c0-73.828125 19.77539063-145.01953125 55.37109375-209.61914063L91.44335937-37.875 314.24609375 20.1328125c60.64453125-32.95898438 129.19921875-51.41601563 200.390625-51.41601563 230.71289063 1.31835938 417.91992188 188.52539063 417.91992188 419.23828126 0 110.7421875-44.82421875 216.2109375-122.60742188 295.31249999zM513.31835938 39.90820312000005c-61.96289063 0-123.92578125 17.13867188-177.97851563 48.77929688l-13.18359375 7.91015625-131.8359375-34.27734375 35.59570313 127.88085938-7.91015625 13.18359374c-34.27734375 55.37109375-52.734375 119.97070313-52.734375 184.57031251 0 191.16210938 155.56640625 346.72851563 348.04687499 346.72851562 92.28515625 0 180.61523438-36.9140625 245.21484376-101.51367188s101.51367188-152.9296875 101.51367187-246.53320312c1.31835938-191.16210938-154.24804688-346.72851563-346.72851563-346.72851563z m191.16210937 259.71679688c-10.546875 5.2734375-61.96289063 30.32226563-72.50976563 32.95898438-9.22851563 3.95507813-17.13867188 5.2734375-23.73046874-5.2734375s-27.68554688-32.95898438-32.95898438-40.86914063c-6.59179688-6.59179688-11.86523438-7.91015625-22.41210938-2.63671875-10.546875 5.2734375-43.50585938 15.8203125-84.37499999 52.734375-30.32226563 27.68554688-52.734375 61.96289063-58.0078125 72.50976563-6.59179688 10.546875-1.31835938 15.8203125 5.2734375 21.09374999 5.2734375 5.2734375 10.546875 11.86523438 15.8203125 18.45703125 5.2734375 6.59179688 6.59179688 10.546875 10.546875 17.13867188 3.95507813 6.59179688 1.31835938 13.18359375-1.31835938 18.45703125s-23.73046875 56.68945313-32.95898437 77.78320313c-7.91015625 21.09375-17.13867188 17.13867188-23.73046875 17.13867187h-19.77539063c-6.59179688 0-18.45703125-2.63671875-27.68554687-13.18359375-9.22851563-10.546875-36.9140625-35.59570313-36.9140625-87.01171875s36.9140625-100.1953125 43.50585937-108.10546875c5.2734375-6.59179688 73.828125-113.37890625 177.97851563-158.203125 25.04882813-10.546875 44.82421875-17.13867188 59.32617187-22.41210938 25.04882813-7.91015625 47.4609375-6.59179688 65.91796875-3.95507812 21.09375 2.63671875 61.96289063 25.04882813 71.19140625 50.09765625 7.91015625 23.73046875 7.91015625 46.14257813 6.59179688 50.09765625-2.63671875 6.59179688-9.22851563 9.22851563-19.77539063 13.18359375z"  horiz-adv-x="1024" />
      
      <glyph glyph-name="youtube" unicode="&#60704;" d="M943.06249971 601.31249971a112.76250029 112.76250029 0 0 1-78.3 78.3c-70.12500029 18.7875-352.35 18.7875-352.35 18.7875s-281.51250029 0.37500029-352.35-18.7875A112.76250029 112.76250029 0 0 1 81.76249971 601.31249971a1171.76249971 1171.76249971 0 0 1-19.575-217.6875 1171.76249971 1171.76249971 0 0 1 19.575-216.86249971 112.76250029 112.76250029 0 0 1 78.3-78.3c70.04999971-18.82500029 352.35-18.82500029 352.35-18.82500029s281.475 0 352.35 18.82500029a112.76250029 112.76250029 0 0 1 78.3 78.3 1171.76249971 1171.76249971 0 0 1 18.75000058 216.86249971 1171.76249971 1171.76249971 0 0 1-18.75000058 217.6875zM422.3375 248.96249970999997V518.7000002899999l234.9-135.07500058z"  horiz-adv-x="1024" />
      
      <glyph glyph-name="call" unicode="&#58958;" d="M688.4 8.200000000000045c-48.4 0-110.9 32.3-154.7 59.4-58.8 36.3-122.1 86.5-178.3 141.4l-0.2 0.2-17.8 17.8c-54.8 56.3-104.9 119.8-141.1 178.7-27 44-59.3 106.6-59.3 155.1 0 51.9 37 107 52.9 128.3 12.4 16.6 55.8 70.8 92.7 70.8 15.1 0 31.4-9.9 52.9-32.2 19-19.7 37.1-44.2 49.1-61.3 16-22.9 30.8-46.9 41.7-67.6 17.6-33.4 19.6-47.8 19.6-55.7 0-15.9-8.3-29.7-24.6-41-10.8-7.4-23.7-13-36.2-18.4-8.4-3.7-21.9-9.5-27-13.6 1.8-7.6 9.6-26 30.8-57.1 19.7-29 45.2-60.4 68.2-84.1 23.6-23.1 55-48.6 83.9-68.4 31-21.2 49.3-29 56.9-30.8 4.1 5.1 9.9 18.6 13.5 27.1 5.4 12.5 11 25.5 18.4 36.3 11.3 16.4 25 24.7 40.9 24.7 7.9 0 22.2-2 55.5-19.7 20.6-10.9 44.6-25.7 67.4-41.8 17-11.9 41.5-30.2 61.1-49.2 22.2-21.5 32.1-37.8 32.1-53 0-37-54-80.5-70.6-92.9-21-15.9-76-53-127.8-53zM876.6 395.5c-13.7 0-24.9 11.1-25 24.9-0.5 84.5-33.8 163.7-93.8 223.1-59.6 59-138.4 91.4-222.1 91.4h-1.9-0.1c-13.7 0-24.9 11.1-25 24.9-0.1 13.8 11 25.1 24.9 25.1 47.5 0.3 93.9-8.5 137.9-26 45.5-18.2 86.4-45 121.6-79.8 35.1-34.8 62.4-75.4 81.1-120.7 18-43.7 27.3-90 27.5-137.6 0.1-13.8-11-25.1-24.9-25.1-0.1-0.2-0.2-0.2-0.2-0.2zM759.7 398.2c-13.7 0-24.9 11.1-25 24.9-0.3 52.3-20.9 101.4-58.1 138.3-36.9 36.6-85.8 56.7-137.8 56.7h-1.1-0.1c-13.7 0-24.9 11.1-25 24.9-0.1 13.8 11.1 25.1 24.9 25.1h1.3c65.3 0 126.6-25.2 173-71.1 46.7-46.2 72.6-107.9 72.9-173.5 0.1-13.8-11.1-25.1-24.9-25.1 0-0.2-0.1-0.2-0.1-0.2zM649.9 402.4c-13.8 0-24.9 11.1-25 24.9-0.1 21.7-8.7 42.1-24.2 57.4-15.4 15.3-35.9 23.6-57.7 23.6h-0.1c-13.8 0-24.9 11.1-25 24.9-0.1 13.8 11.1 25 24.9 25.1h0.5c34.9 0 67.8-13.5 92.6-38 25-24.8 38.9-57.7 39-92.8 0.1-13.8-11.1-25-25-25.1 0.1 0 0 0 0 0z"  horiz-adv-x="1024" />
      
      <glyph glyph-name="tiktok" unicode="&#58884;" d="M881.140625 459.9539795a346.16821289 346.16821289 0 0 0-202.31872559 64.68200683v-294.52148438A267.87414551 267.87414551 0 1 0 447.72998047 495.54968262v-148.13415528a122.9699707 122.9699707 0 1 1 86.0723877-117.30102539V805.875h145.01953124a199.69848633 199.69848633 0 0 1 3.06518556-36.53503418A201.34643555 201.34643555 0 0 1 770.72802734 637.1414795000001a200.11047364 200.11047364 0 0 1 110.41259766-33.18969728z"  horiz-adv-x="1024" />
      
      <glyph glyph-name="upwards" unicode="&#59003;" d="M484.05078125 535.2421875a83.42578125 83.42578125 0 0 0 89.6484375-18.03515625 87.90820313 87.90820313 0 0 0 129.46289063-9.43945313A91.65234375 91.65234375 0 0 0 852.6640625 436.734375l-0.05273438-241.5234375c0-49.41210938-15.24023438-97.61132813-43.55859375-138.05859375a156.25195313 156.25195313 0 0 0-127.98632812-66.65625H456.89257812a252.22851563 252.22851563 0 0 0-214.15429687 119.07421875l-29.84765625 47.98828125a268.1015625 268.1015625 0 0 0-40.44726563 141.5390625c0 52.68164063 42.71484375 95.39648438 95.44921876 95.39648438h50.36132812V717.38671875a82.8984375 82.8984375 0 0 0 165.74414063 0v-182.14453125z m0-77.78320313v-7.48828124a26.3671875 26.3671875 0 0 0-52.734375 0v267.36328124a30.1640625 30.1640625 0 0 1-60.328125 1e-8v-345.30468751a26.578125 26.578125 0 0 0 0-7.85742187v-23.4140625c0-35.96484375-14.1328125-65.390625-41.66015625-85.58789063a26.3671875 26.3671875 0 0 0-31.21875 42.50390626c13.7109375 10.01953125 20.14453125 23.51953125 20.14453125 43.08398437V341.8125H267.83984375a42.66210938 42.66210938 0 0 1-42.66210938-42.71484375c0-40.18359375 11.28515625-79.57617188 32.484375-113.6953125l29.84765625-47.98828125a199.49414063 199.49414063 0 0 1 169.38281251-94.13085938h224.27929687c33.75 0 65.390625 16.50585938 84.796875 44.13867188 22.1484375 31.640625 34.01367188 69.29296875 34.01367188 107.84179688V436.734375a38.91796875 38.91796875 0 1 1-77.88867188 0v-22.04296875a26.3671875 26.3671875 0 1 0-52.734375 0V453.08203125a35.33203125 35.33203125 0 1 1-70.6640625 0v-18.40429688a26.3671875 26.3671875 0 1 0-52.734375 1e-8v22.78124999a31.0078125 31.0078125 0 1 1-61.96289063 1e-8z"  horiz-adv-x="1024" />
      
      <glyph glyph-name="add-friends" unicode="&#58909;" d="M715.060789 350.03105545000005c-108.526739 0-195.346083-86.820368-195.34608301-195.346083 0-108.526739 86.819344-195.346083 195.34608301-195.346083 108.524692 0 195.346083 86.820368 195.346083 195.346083C910.406872 263.21068745 823.585481 350.03105545000005 715.060789 350.03105545000005L715.060789 350.03105545000005zM823.585481 126.77838844999997l-80.618109 0 0-80.620156L687.154205 46.158232450000014l0 80.620156-80.620156 0L606.53404999 182.59155545l80.620156 0 0 80.618109 55.81316701 0 0-80.618109 80.61810901 0L823.585481 126.77838844999997 823.585481 126.77838844999997zM524.30543417 318.32328078c-7.05562851 14.11125589-7.05562851 31.75148999 3.52781426 59.97400292l0 0c56.44735261 56.44735261 91.72549291 148.17284551 91.72549291 239.89950236 0 141.11838208-84.67102947 211.67699059-194.0355914 211.67699058-105.83791275 0-190.50894222-74.08642275-190.50894223-211.67699058 0-91.72549291 35.27814029-183.45214976 91.72549291-239.89950236 21.16804834-56.44735261-17.63907015-77.61540096-24.69586261-81.14205127C189.15146069 254.82029967000005 58.61768534 180.73271295999996 58.61768534 106.64629020999996c0-21.16804834 0-7.05679246-2e-8-28.22484083 0-98.78112029 190.50777827-119.94916865 366.90662857-119.94916863 38.80711851 0 77.614237 0 116.42251946 3.52781427-45.86391095 49.39172523-74.08642275 116.42135552-74.08642276 190.50894222C467.85924551 212.48420294000005 489.02612991 272.45936981 524.30543417 318.32328078L524.30543417 318.32328078z"  horiz-adv-x="1024" />
      
      <glyph glyph-name="groupfill" unicode="&#59056;" d="M997.22484753 151.54393423a145.94075135 145.94075135 0 0 0 0-69.96748012 449.00804306 449.00804306 0 0 0-124.54511682-37.01069495s-3.75362046 28.8278031-11.33593285 69.96748012c-7.50724009 53.52662329-45.04344214 98.79528242-173.56739639 164.63378047 22.52172107-12.31187393-120.79149637 28.8278031-79.27645771 98.7952824 109.4555635 94.66630032 83.03007816 242.78415161 60.0579223 321.00959592a117.18802139 117.18802139 0 0 0 56.60459197 12.31187393h7.50724092c101.8732511 0 132.05235691-102.84919217 135.88104968-160.50479754a218.23547607 218.23547607 0 0 0-75.44776575-189.25752915 76.94921311 76.94921311 0 0 1-3.75361963-28.82780227 46.7701073 46.7701073 0 0 1 7.50724008-24.69882101c45.64402075-37.1608396 189.03231134-74.17153455 200.3682442-156.4508878zM533.05217883 307.91974969c-7.50724009 4.12898209-11.33593286 24.69882101-11.33593286 28.8278031a51.04923404 51.04923404 0 0 0 7.50724009 32.95678519s94.36601102 57.58053306 94.36601101 234.52618744C619.83587662 674.19800473 582.07445758 805.875 453.77572112 805.875h-7.50724089C314.21612332 805.875 280.20832473 678.25191448 276.45470428 604.23052542A283.39832153 283.39832153 0 0 1 370.8207153 369.70433798a78.22544431 78.22544431 0 0 0 11.33593287-41.13967703 63.43618029 63.43618029 0 0 0-15.01448017-24.69882101c-52.55068223-45.04344214-245.26154087-94.66630032-260.42616651-193.38651042-11.33593286-41.13967703-67.56516321-111.10715634 124.54511683-135.80597735a1489.96198582 1489.96198582 0 0 1 218.91112701-12.31187393c441.50080297 0 350.96348474 94.66630032 339.62755188 148.11785129-7.50724009 102.84919217-203.74650219 152.24683338-256.59747372 197.5154925z"  horiz-adv-x="1106" />
      
      <glyph glyph-name="minimize" unicode="&#58960;" d="M863.7 343.5H160.3c-10.6 0-19.2 8.6-19.2 19.2v41.7c0 10.6 8.6 19.2 19.2 19.2h703.3c10.6 0 19.2-8.6 19.2-19.2v-41.7c0-10.6-8.5-19.2-19.1-19.2z"  horiz-adv-x="1024" />
      
      <glyph glyph-name="maximize" unicode="&#58961;" d="M754.71875-1.59375H269.28125c-78.5625 0-142.40625 63.9375-142.40625 142.40625V626.25c0 78.5625 63.9375 142.40625 142.40625 142.40625h485.4375c78.5625 0 142.40625-63.9375 142.40625-142.40625v-485.4375c0-78.5625-63.84375-142.40625-142.40625-142.40625zM269.28125 693.65625c-37.21875 0-67.40625-30.28125-67.40625-67.40625v-485.4375c0-37.21875 30.28125-67.40625 67.40625-67.40625h485.4375c37.21875 0 67.40625 30.28125 67.40625 67.40625V626.25c0 37.21875-30.28125 67.40625-67.40625 67.40625H269.28125z"  horiz-adv-x="1024" />
      
      <glyph glyph-name="setting" unicode="&#58975;" d="M704 384a192 192 0 1 0-384 0 192 192 0 0 0 384 0z m-64 0a128 128 0 1 1-256 0 128 128 0 0 1 256 0zM512 816l387.968-216v-432L512-48l-387.968 216v432L512 816zM188.032 562.3679999999999v-356.736L512 25.279999999999973l323.968 180.352V562.3679999999999L512 742.72 188.032 562.3679999999999z"  horiz-adv-x="1024" />
      
      <glyph glyph-name="tuichu" unicode="&#59068;" d="M675.996875 638.64375a37.490625 37.490625 0 1 0 38.64375 64.265625A393.496875 393.496875 0 0 0 905.75 365.240625c0-217.4625-176.2875-393.75-393.75-393.75s-393.75 176.2875-393.75 393.75C118.25 505.21875 191.9375 632.484375 309.753125 703.1625A37.490625 37.490625 0 0 0 348.3125 638.8125a318.515625 318.515625 0 0 1-155.053125-273.6C193.259375 189.20624999999995 335.9375 46.5 512 46.5c176.0625 0 318.740625 142.70625 318.740625 318.740625 0 113.23125-59.45625 216.1125-154.74375 273.375zM512 796.509375c20.7 0 37.490625-16.790625 37.490625-37.51875v-299.98125a37.490625 37.490625 0 1 0-74.98125 0V758.990625c0 20.728125 16.790625 37.51875 37.490625 37.51875z"  horiz-adv-x="1024" />
      
      <glyph glyph-name="chuangjianqunliao" unicode="&#59873;" d="M706.18074112 663.13481443a109.22666667 109.22666667 0 0 0 109.22666667-109.22666666v-366.1763311a109.22666667 109.22666667 0 0 0-101.75070891-108.98394112l-7.91286443-0.24272554-222.72531 0.63108665-113.83845888-0.14563556-29.46692779-0.19417998c-60.29312-0.58254222-135.87797333-31.55436999-226.75456-92.91548445a24.27259221 24.27259221 0 0 0-37.86524445 20.1462511V553.90814777a109.22666667 109.22666667 0 0 0 109.22666667 109.22666666H706.18074112z m0-72.81777777H184.32a36.40888889 36.40888889 0 0 1-36.06907221-31.45728L147.91111111 553.90814777v-461.27634887l5.87396779 3.20398222c62.81747001 33.49617778 119.90660779 52.23461888 172.23831665 55.34151111l13.01011002 0.43690667 81.31318442 0.33981553 285.54278002-0.63108664c18.68989667 0 33.98163001 13.68974222 36.40888889 31.45728l0.29127111 4.95160888V553.90814777a36.40888889 36.40888889 0 0 1-31.45728 36.06907335L706.18074112 590.31703666z m-260.00801223-66.74962887c20.38897778 0 36.89434112-16.50536334 36.89434112-36.89434112l-0.04854556-79.51701334h79.80828444a36.55452445 36.55452445 0 0 0 0-73.15759445h-79.80828444v-76.99266333a36.89434112 36.89434112 0 0 0-73.69159112 0l-0.04854556 76.99266333h-79.1286511a36.55452445 36.55452445 0 0 0 0 73.15759445h79.1286511l0.04854556 79.5655589c0 20.34043221 16.50536334 36.84579555 36.89434112 36.84579556zM803.27111111 796.58552889a145.63555555 145.63555555 0 0 0 145.39283001-137.09160334L948.90666667 650.9985189v-374.42901333a36.40888889 36.40888889 0 0 0-72.4779611-4.9516089l-0.33981668 4.9516089V650.94997333a72.81777778 72.81777778 0 0 1-65.82727111 72.4779611L803.27111111 723.81629667H293.54666667a36.40888889 36.40888889 0 0 0-4.95160889 72.47796111L293.54666667 796.63407445H803.27111111z"  horiz-adv-x="1024" />
      
      <glyph glyph-name="erweima" unicode="&#59069;" d="M446.0820315 779.5078125H149.45117213A32.95898463 32.95898463 0 0 1 116.4921875 746.54882787V449.9179685a32.95898463 32.95898463 0 0 1 32.95898463-32.95898387H446.0820315a32.95898463 32.95898463 0 0 1 32.95898387 32.95898387V746.54882787A32.95898463 32.95898463 0 0 1 446.0820315 779.5078125z m-32.95898463-296.63085938H182.410156V713.589844h230.71289088v-230.71289088z m32.95898463-131.83593775H149.45117213A32.95898463 32.95898463 0 0 1 116.4921875 318.08203149999997v-296.63085937A32.95898463 32.95898463 0 0 1 149.45117213-11.5078125H446.0820315a32.95898463 32.95898463 0 0 1 32.95898387 32.95898463V318.08203149999997a32.95898463 32.95898463 0 0 1-32.95898387 32.95898387zM413.12304687 54.41015600000003H182.410156V285.12304687000005h230.71289088V54.41015600000003z m461.425781 725.0976565H577.9179685a32.95898463 32.95898463 0 0 1-32.95898387-32.95898463V449.9179685a32.95898463 32.95898463 0 0 1 32.95898387-32.95898387h296.63085937A32.95898463 32.95898463 0 0 1 907.5078125 449.9179685V746.54882787A32.95898463 32.95898463 0 0 1 874.54882787 779.5078125zM841.589844 482.87695313H610.87695313V713.589844H841.589844v-230.71289088zM248.32812525 647.67187475h98.87695313v-98.87695313H248.32812525V647.67187475z m0-428.46679637h98.87695313V120.32812524999997H248.32812525v98.87695313z m560.30273412 131.83593699H907.5078125V252.16406225000003h-98.87695313v98.87695312z m0-263.67187474h-65.91796849V-11.5078125H907.5078125v164.79492162h-98.87695313v-65.91796849z m-263.67187474 0H643.83593775V-11.5078125h-98.87695312v98.87695313z m131.83593699 560.30273412H775.67187475v-98.87695313h-98.87695313V647.67187475z m-131.83593699-296.63085938H643.83593775V252.16406225000003h-98.87695312v98.87695312zM643.83593775 252.16406225000003h98.87695313v-164.79492163H643.83593775V252.16406225000003z"  horiz-adv-x="1024" />
      
      <glyph glyph-name="jubao" unicode="&#58882;" d="M518.32496258 205.42522504c23.1915292 0 42.16641697 18.97488776 42.16641696 42.16641695s-18.97488776 42.16641697-42.16641696 42.16641614-42.16641697-18.97488776-42.16641696-42.16641614c0.42166406-23.1915292 18.97488776-42.16641697 42.16641696-42.16641696zM518.32496258 320.11787887c23.1915292 0 42.16641697 18.97488776 42.16641696 42.16641615V591.6696026899999c0 23.1915292-18.97488776 42.16641697-42.16641696 42.16641697s-42.16641697-18.97488776-42.16641696-42.16641697v-229.38530767c0.42166406-23.1915292 18.97488776-42.16641697 42.16641696-42.16641614zM897.82271359 570.16472974h-2.10832114 2.10832114c-0.42166406 24.03485733 0 47.6480506 0 72.94790176V699.61562989c-1.68665707 18.13155964-13.4932533 33.31146917-30.78148398 38.79310363-113.84932571 33.31146917-231.49362799 56.08133432-349.55959516 67.04460242-1.26499219 0-2.95164926 0.42166406-4.21664226 0.42166406h-1.68665625c-64.09295316-2.95164926-128.18590714-10.96326809-190.59220405-24.45652139-54.81634213-12.22826111-110.05434751-26.14317847-164.0273615-42.16641697-17.28823069-5.90329853-29.09482773-21.08320807-30.78148398-39.63643175V584.92297605c-1.68665707-152.22076447-2.95164926-262.69677685 37.10644656-353.7762366 40.47975989-91.50112463 121.01761642-163.18403338 278.29835129-247.09520243 21.50487295-13.91491736 46.38305841-21.08320807 72.10457282-21.0832089 25.29985034 0 49.75637173 7.16829071 70.83957979 20.23987995 161.07571225 84.33283393 238.6619187 149.69077927 277.03335828 232.33695694 39.2147677 85.17616206 38.37143958 192.27886029 36.26311844 354.61956473z m-716.40742099 75.89955102v10.11993997c0 5.48163445 0.42166406 10.11993997 0.42166407 15.17990954 0.42166406 3.37331332 0.42166406 7.58995477 0.42166406 12.22826112 12.22826111 3.79497739 24.45652139 7.58995477 37.52811063 11.80659622 36.26311844 11.38493215 74.21289395 23.1915292 113.00599757 32.04647699 59.03298358 12.64992517 119.33095935 20.66154401 179.62893513 23.19152921 110.89767646-10.54160403 221.79535208-31.62481292 328.89805115-62.40629691 0-6.74662665 0.42166406-13.91491736 0.42166406-20.661544v-0.84332813c0.42166406-8.43328372 0.42166406-16.86656663 0.42166406-24.45652221v-71.68290794c4.21664145-312.45314858 5.48163445-386.66604172-284.62331305-538.46514294-13.4932533-8.43328372-28.67316367-13.07158924-43.85307321-13.91491736-15.60157444 0.84332812-31.20314804 5.48163445-45.11806622 14.33658142-150.11244415 80.11619165-218.84370281 137.88418304-253.84182908 212.097077-36.26311844 77.16454238-34.99812625 176.25562179-33.31146917 325.94640188 0.42166406 20.23987995 0.42166406 51.02136392 0 75.47788614z"  horiz-adv-x="1024" />
      
      <glyph glyph-name="gengduo" unicode="&#58942;" d="M925 85H99.5c-12-0.7-23.5 5.3-29.7 15.7-6.2 10.3-6.2 23.3 0 33.6s17.7 16.4 29.7 15.7H925c12 0.7 23.5-5.3 29.7-15.7 6.2-10.3 6.2-23.3 0-33.6-6.3-10.4-17.7-16.4-29.7-15.7zM925 361.29999999999995H99.5c-12-0.7-23.5 5.3-29.7 15.7-6.2 10.3-6.2 23.3 0 33.6s17.7 16.4 29.7 15.7H925c12 0.7 23.5-5.3 29.7-15.7 6.2-10.3 6.2-23.3 0-33.6-6.3-10.3-17.7-16.4-29.7-15.7zM925 616.3H99.5c-12-0.7-23.5 5.3-29.7 15.7-6.2 10.3-6.2 23.3 0 33.6s17.7 16.4 29.7 15.7H925c12 0.7 23.5-5.3 29.7-15.7 6.2-10.3 6.2-23.3 0-33.6-6.3-10.3-17.7-16.4-29.7-15.7z"  horiz-adv-x="1024" />
      
      <glyph glyph-name="biaoqing" unicode="&#59181;" d="M512.09375 804.09375C280.4375 804.09375 92 615.5625 92 384c0-231.65625 188.4375-420.09375 420.09375-420.09375 231.65625 0 420.09375 188.4375 420.09375 420.09375 0 231.5625-188.53125 420.09375-420.09375 420.09375z m0-750.46875c-182.15625 0-330.375 148.21875-330.375 330.375 0 182.15625 148.21875 330.375 330.375 330.375 182.15625 0 330.375-148.21875 330.375-330.375 0-182.15625-148.21875-330.375-330.375-330.375zM411.59375 421.59375c34.40625 0 62.25 27.84375 62.25 62.25s-27.84375 62.25-62.25 62.25-62.25-27.84375-62.25-62.25c0.09375-34.40625 27.9375-62.25 62.25-62.25z m200.90625 0c34.40625 0 62.25 27.84375 62.25 62.25s-27.84375 62.25-62.25 62.25-62.25-27.84375-62.25-62.25c0.09375-34.40625 27.9375-62.25 62.25-62.25z m75.46875-73.5c-23.8125 7.40625-48.75-6-56.0625-29.625-16.3125-52.875-64.59375-88.40625-120-88.40625-55.03125 0-103.125 35.25-119.71875 87.65625-7.40625 23.625-32.8125 36.75-56.25 29.15625-23.625-7.5-36.65625-32.71875-29.25-56.34375 28.5-89.90625 111-150.1875 205.21875-150.1875 95.0625 0 177.75 60.9375 205.6875 151.6875 7.3125 23.625-6 48.75-29.625 56.0625z"  horiz-adv-x="1024" />
      
      <glyph glyph-name="qunliao" unicode="&#58999;" d="M916.95234781 18.422039059999975v-43.97565c0-23.45550938-19.53254063-42.49425-43.64645062-42.49425h-1.12476657a44.16768375 44.16768375 0 0 0-26.7200775 9.16273688l-47.43225187 36.6509475a320.14712438 320.14712438 0 0 0-251.04253031 64.08429187 28.39351125 28.39351125 0 0 0 0.82300031 40.93054875c9.95830406 9.32733656 25.21124344 10.75387125 36.81554719 3.40173469a261.24773437 261.24773437 0 0 1 214.91281687-49.46231906l13.168005 2.57873437 42.90574969-32.61824625v45.81368438l15.44497312 8.03797031c60.62769 28.17404437 100.32373875 86.66193375 103.12194 152.03559188a156.04086 156.04086 0 0 1-34.64831343 98.897205 28.80501094 28.80501094 0 0 0 4.718535 41.20488281 30.67047844 30.67047844 0 0 0 42.32964937-4.58136844A212.22434906 212.22434906 0 0 0 1034.39449344 215.50318218999996c-0.63096656-81.28499813-45.26501719-156.20546063-117.44214563-197.08114313z m-432.07516781 91.5725025a527.26887094 527.26887094 0 0 0-85.42743281 6.96806907l-95.22113719-73.27446188a43.59158344 43.59158344 0 0 0-26.33601-8.80610344c-23.70240937 0-42.90574969 18.70954031-42.90574969 41.78098313v97.44323812C121.79687281 233.93838936999998 50.031245 348.03366656000003 46.79411094 473.376615 46.79411094 674.10639281 243.27171969 837.49938938 485.2612475 837.49938938c243.52579406 0 438.11050313-161.91159562 438.11050219-363.02544001s-196.47760969-364.47940781-438.49456969-364.47940781zM282.39166813 529.4229375c-31.98727875 0-57.93922219-25.26610969-57.93922219-56.40295594 0-31.16427844 25.95194344-56.43038813 57.93922219-56.43038812v0.38406656c31.87754531 0 57.7746225 25.01920969 57.96665625 56.04632156 0 31.13684531-25.95194344 56.402955-57.96665625 56.40295594z m202.86957937 0c-32.01471281 0-57.96665531-25.26610969-57.96665625-56.40295594 0-31.16427844 25.95194344-56.43038813 57.96665625-56.43038812v0.38406656c31.87754531 0 57.74718938 25.01920969 57.96665531 56.04632156 0 31.13684531-25.95194344 56.402955-57.96665531 56.40295594z m197.21830969 0c-32.01471281 0-57.96665531-25.26610969-57.96665625-56.40295594 0-31.16427844 25.95194344-56.43038813 57.96665625-56.43038812v0.38406656c31.87754531 0 57.74718938 25.01920969 57.96665531 56.04632156 0 31.13684531-25.95194344 56.402955-57.96665531 56.40295594z"  horiz-adv-x="1116" />
      
      <glyph glyph-name="sousuo" unicode="&#58901;" d="M941.6 22L763.7 199.89999999999998c20.6 26.7 37.6 55.9 50.8 87.2 20.3 48.3 30.6 99.6 30.6 152.4s-10.3 104.1-30.6 152.4c-19.6 46.6-47.7 88.5-83.5 124.5s-77.5 64.2-123.9 84C559 820.7 507.9 831.1 455.3 831.1S351.6 820.7 303.5 800.2c-46.4-19.7-88.1-48-123.9-84-35.8-36-63.9-77.8-83.5-124.5-20.3-48.3-30.6-99.6-30.6-152.4s10.3-104.1 30.6-152.4c19.6-46.6 47.7-88.5 83.5-124.5s77.5-64.2 123.9-84c48.1-20.5 99.2-30.8 151.8-30.8S559 58 607.1 78.39999999999998c31.7 13.5 61.2 30.9 88.1 52l177.6-177.6c18.9-18.9 49.9-18.9 68.9 0 18.9 19.3 18.9 50.3-0.1 69.2zM455.3 127.70000000000005c-170.9 0-310 139.8-310 311.7s139 311.7 310 311.7c170.9 0 310-139.8 310-311.7s-139.1-311.7-310-311.7z"  horiz-adv-x="1024" />
      
      <glyph glyph-name="shipin" unicode="&#59081;" d="M912 593.7L784 520V672c0 35.3-28.7 64-64 64H128c-35.3 0-64-28.7-64-64v-576c0-35.3 28.7-64 64-64h592c35.3 0 64 28.7 64 64V248l128-73.7c21.3-12.3 48 3.1 48 27.6V566c0 24.6-26.7 40-48 27.7zM712 104H136V664h576v-560z m176 167l-104 59.8V437.1L888 497v-226zM208 536h112c4.4 0 8 3.6 8 8v48c0 4.4-3.6 8-8 8H208c-4.4 0-8-3.6-8-8v-48c0-4.4 3.6-8 8-8z"  horiz-adv-x="1024" />
      
      <glyph glyph-name="tianjiahaoyou" unicode="&#65744;" d="M472.6272 364.544h13.9264c1.4848 0 2.9184 0.1024 4.352 0.3072 115.9168 5.888 208.4352 102.0928 208.4352 219.4432 0 121.1392-98.56 219.7504-219.7504 219.7504S259.8912 705.4336 259.8912 584.2944c0-69.632 32.6144-131.7888 83.3024-172.0832-135.9872-52.224-232.8064-184.1152-232.8064-338.2272 0-41.8816 34.048-75.9296 75.9296-75.9296h260.5568c19.8144 0 35.84 16.0256 35.84 35.84s-16.0256 35.84-35.84 35.84H186.3168c-2.3552 0-4.2496 1.8944-4.2496 4.2496 0 160.2048 130.3552 290.56 290.56 290.56z m6.9632 367.7696c81.664 0 148.0704-66.4064 148.0704-148.0704S561.2544 436.224 479.5904 436.224 331.5712 502.6304 331.5712 584.2944s66.4064 148.0192 148.0192 148.0192zM888.0128 256.8192h-109.7216v109.7216c0 19.8144-16.0256 35.84-35.84 35.84s-35.84-16.0256-35.84-35.84v-109.7216h-109.7216c-19.8144 0-35.84-16.0256-35.84-35.84s16.0256-35.84 35.84-35.84h109.7216v-109.7216c0-19.8144 16.0256-35.84 35.84-35.84s35.84 16.0256 35.84 35.84v109.7216h109.7216c19.8144 0 35.84 16.0256 35.84 35.84s-16.0256 35.84-35.84 35.84z"  horiz-adv-x="1024" />
      
      <glyph glyph-name="yonghudianji" unicode="&#58936;" d="M613.475512-125.090975H410.530306c-192.501807 0-344.539079 0-344.539079 99.843549v19.973364c0 187.120111 154.57976 339.331924 344.539079 339.331924h202.939388c189.959319 0 344.544897-152.211813 344.544897-339.331924v-19.973364c-0.034908-99.843549-159.717097-99.843549-344.539079-99.843549zM501.838776 354.089407c-150.832936 0-273.483239 120.904889-273.483239 269.521147 0 148.610441 122.656121 269.480421 273.483239 269.480421s273.483239-120.86998 273.483239-269.480421c0-148.616259-122.685212-269.521147-273.483239-269.521147z"  horiz-adv-x="1024" />
      
      <glyph glyph-name="yonghu" unicode="&#58938;" d="M613.475512-125.090975H410.530306c-192.501807 0-344.539079 0-344.539079 99.843549v19.973364c0 187.120111 154.57976 339.331924 344.539079 339.331924h202.939388c189.959319 0 344.544897-152.211813 344.544897-339.331924v-19.973364c-0.034908-99.843549-159.717097-99.843549-344.539079-99.843549zM410.495398 274.207586c-156.941888 0-284.648076-125.349878-284.648076-279.44674v-19.967546c0-39.964183 164.505352-39.964183 284.648076-39.964182h202.945206c99.45374 0 284.653894 0 284.653894 39.964182v19.967546c0 154.096861-127.712007 279.44674-284.653894 279.44674H410.495398z m91.343378 79.881821c-150.832936 0-273.483239 120.904889-273.483239 269.521147 0 148.610441 122.656121 269.480421 273.483239 269.480421s273.483239-120.86998 273.483239-269.480421c0-148.616259-122.685212-269.521147-273.483239-269.521147zM288.24654 623.610554c0-115.563919 95.817459-209.630145 213.592236-209.630144 117.786414 0 213.598055 94.031317 213.598055 209.630144S619.619372 833.205791 501.838776 833.205791c-117.774778 0-213.592237-94.037136-213.592236-209.595237z"  horiz-adv-x="1024" />
      
      <glyph glyph-name="nail" unicode="&#59536;" d="M873.96875 455.71875L933.875 515.625 643.625 805.875 583.71875 745.96875l57.796875-58.21875-139.21875-139.21875a244.6875 244.6875 0 0 1-236.25-62.015625L208.25 428.296875 150.03125 486.515625 90.125 426.1875l202.078125-202.078125-115.171875-115.171875 59.90625-59.90625 115.59375 115.59375L554.1875-37.875l59.90625 59.90625-57.796875 58.21875 57.796875 57.796875a244.6875 244.6875 0 0 1 62.4375 236.671875l139.21875 139.21875z"  horiz-adv-x="1024" />
      
      <glyph glyph-name="notice_forbid" unicode="&#58924;" d="M512-36a176.4 176.4 0 0 1 169.2 126.66H342.8A176.4 176.4 0 0 1 512-36zM347.78 124.44000000000005h316.38L276.98 589.9200000000001a282.48 282.48 0 0 1-49.62-160.02v-103.74l-102-172.68a19.2 19.2 0 0 1 16.5-28.98h205.92zM898.7 153.48000000000002l-102 172.68V429.9A285.72 285.72 0 0 1 609.68 697.2c0 2.88 0.42 6 0.42 8.7a98.1 98.1 0 1 1-196.2 0c0-2.94 0-6 0.42-8.7a286.56 286.56 0 0 1-50.82-24.78l-52.32 62.94a30 30 0 0 1-46.14-38.4l552.6-664.32a30 30 0 0 1 24-10.74 29.22 29.22 0 0 1 18 6.9 30 30 0 0 1 3.9 42l-44.46 53.46h63.12a19.2 19.2 0 0 1 16.5 29.22z"  horiz-adv-x="1024" />
      
      <glyph glyph-name="ear" unicode="&#58997;" d="M514.85876292 779.5078125c110.24104511 0 201.10813462-62.07573678 237.30400463-164.12149155 1.797213-5.21191776 5.3197508-15.70764143 10.49572368-31.45122697a17.97212991 17.97212991 0 0 0-8.59067765-21.45872362l-28.75540787-15.348199a17.97212991 17.97212991 0 0 0-25.1250378 9.05795391 3486.2337777 3486.2337777 0 0 0-15.92330752 39.43085277c-27.10197201 70.09130667-90.22009281 111.57098339-169.40529747 111.57098339-101.83008868 0-184.35810995-85.00817505-184.35810917-189.85758118 0-25.87986754 5.03219652-50.93301638 14.59336924-74.15300892 6.46996708-15.74358552 14.9168676-32.63738812 26.77847365-54.0242228l3.48659372-6.254301c7.08101893-12.58049094 29.79779188-51.75973432 37.02258717-64.55589056l0.82671792-1.43777055c33.7516603-59.88313725 55.71360275-107.50928192 71.31341192-160.85056391l0.93455097-3.23498354c20.59606084-71.99635271 49.1358034-100.28448509 109.73782553-89.68092836 41.26401064 7.22479605 62.11168164 32.78116525 65.31072109 85.87083707 0.10783304 1.72532482 0 5.06814062-0.35944321 10.06439305a21.56655591 21.56655591 0 0 0 16.78596955 22.60893915l26.95819487 6.03863569a21.56655591 21.56655591 0 0 0 26.16742181-18.87073604c0.79077383-7.62018336 1.07832811-13.87448436 0.79077384-18.72695966-4.34925573-88.45882389-46.4399843-144.71159108-123.89986493-158.26257709-55.31821621-9.70494984-100.42826223 3.41470476-133.92831236 36.59125655-25.16098188 24.90937249-41.51562003 58.01403532-54.16799993 101.21903683l-0.75482975 2.65987501c-13.51504191 47.15886918-32.96088647 89.96848263-63.72917264 144.85536744l-4.67275409 8.26718008c-8.98606496 15.74358552-30.19317842 52.37078693-35.94425983 62.72273348l-3.09120641 5.49947202a589.41397542 589.41397542 0 0 0-30.19317841 61.24901885A268.14417975 268.14417975 0 0 0 260.26556916 517.33038025C260.26556916 662.1138595 374.24481816 779.5078125 514.85876292 779.5078125z m51.40029186-187.19770617c26.2033659-9.20173028 51.11273761-38.74791198 63.0821767-68.47381492l0.86266202-2.12071134a17.97212991 17.97212991 0 0 0-7.62018335-22.644884l-26.77847365-15.27631083a17.97212991 17.97212991 0 0 0-25.01720476 7.62018338 35.76453862 35.76453862 0 0 1-1.58154767 2.94742927c-3.5225378 5.64324914-9.05795314 22.82460523-25.62825738 29.47429352-7.3326291 2.94742927-17.72052052 1.72532482-26.13147695-1.68938072-12.68832398-5.17597366-21.1352245-19.48178864-19.15829029-35.65670556 1.25804932-10.17222533 4.67275408-17.57674338 12.72426807-27.5692475l0.97049507-1.22210523c2.62393092-3.16309459 5.60730428-6.54185525 9.7768388-10.99894327l17.68457566-18.76290375c14.73714638-15.92330753 26.63469653-30.26506659 38.71196788-47.44642345 11.71782893-16.67813649 21.49466772-38.56819075 29.72590293-65.81393989l3.01931823-10.49572369a22.57299505 22.57299505 0 0 0-16.46247119-27.92868994l-23.14810358-5.60730506a24.08265455 24.08265455 0 0 0-27.60519158 13.55098601l-1.18616038 3.27092762c-6.54185525 23.00432646-13.76665132 39.97001722-21.27900241 50.68140699a354.33851518 354.33851518 0 0 1-30.19317841 37.27419734l-4.99625167 5.31975079-12.72426808 13.51504192a334.0659527 334.0659527 0 0 0-14.88092351 16.64219241c-16.96569077 20.63200493-26.63469653 40.72484696-29.83373597 66.4968807-6.03863569 49.35146871 20.84767102 94.78501385 62.97434367 111.96636991 22.8964934 9.3455074 49.99846541 11.5740518 74.65622771 2.94742929z"  horiz-adv-x="1024" />
      
      <glyph glyph-name="leave" unicode="&#58900;" d="M654.77800214 393.28565596c-1.15689111 14.58967852-11.31182138 22.49509922-32.65003037 32.5857577-34.89953994 15.74656963-69.7348081 15.74656963-107.97647607 15.74656964-16.90346074 0-33.74264883-1.09261933-50.64610957-2.24950957-64.07889697 21.40247988-111.31860586 98.97843691-111.31860498 169.87013526 0 66.32840742 41.58379776 125.97255615 103.47745606 149.56027382a162.0932581 162.0932581 0 0 0 177.71128417-41.58379775c44.99019844-49.48921846 55.08085781-120.3809168 25.83722901-179.96079375a32.0073126 32.0073126 0 0 1 14.65395029-42.74068887c15.74656963-7.9054207 34.89953994-1.15689111 43.89757911 14.58967852a226.1078833 226.1078833 0 0 1-35.99215841 250.85249297 228.80729531 228.80729531 0 0 1-247.44609227 59.57987695c-86.63826797-32.58575771-146.2824167-114.72500654-148.46765538-206.95491299-1.15689111-70.82742657 47.23970889-148.46765537 98.97843692-191.20834424C209.31076426 364.04202626999995 70.99804004 217.82388134999997 62 2.9635476600000175v-24.74460967c0-23.58771856 16.90346074-43.83330732 37.14904951-43.83330733 20.24558964 0 37.08477774 19.08869854 37.08477772 43.83330733v21.40247988C145.23186729 221.16601026 301.54067158 371.88317519 511.90198526 371.88317519a399.127333 399.127333 0 0 0 96.72892735-11.24754961c21.3382081-5.59163935 49.48921846 8.99804003 46.08281776 32.65003038z m295.77841963-224.95099307L790.8412168 326.89297675a37.34186484 37.34186484 0 0 1-52.83134737 0 38.75584219 38.75584219 0 0 1-11.31182138-25.83722812c0-10.15493028 4.49902002-19.15297031 11.24754961-25.9014999l96.79319824-96.72892735h-283.43825069a37.47040839 37.47040839 0 0 1-37.14904951-37.08477773c0-20.24558964 16.90346074-37.14904951 37.08477774-37.14904951h280.09612177l-93.38679755-93.32252666a37.34186484 37.34186484 0 0 1 0-52.89561914 39.27001641 39.27001641 0 0 1 26.99411924-11.24754961 36.57060441 36.57060441 0 0 1 26.99411924 11.24754961l158.62258563 157.46569541a38.75584219 38.75584219 0 0 1 11.24754961 25.9014999 39.27001641 39.27001641 0 0 1-11.24754961 26.99411924z"  horiz-adv-x="1024" />
      
      <glyph glyph-name="playcircle" unicode="&#58930;" d="M512 832c247.424 0 448-200.576 448-448S759.424-64 512-64 64 136.57600000000002 64 384 264.576 832 512 832z m0-80c-203.24 0-368-164.76-368-368s164.76-368 368-368 368 164.76 368 368-164.76 368-368 368z m-80-197.427a32 32 0 0 0 16-4.288l240.003-138.573c15.305-8.836 20.549-28.407 11.712-43.713a32 32 0 0 0-11.712-11.711L448.001 217.71500000000003c-15.306-8.837-34.877-3.594-43.713 11.711A32 32 0 0 0 400 245.42700000000002V522.573c0 17.673 14.327 32 32 32z"  horiz-adv-x="1024" />
      
      <glyph glyph-name="gift" unicode="&#58970;" d="M834.788126 368.11931100000004L186.303638 368.11931100000004c-19.910469 0-35.96819-16.145725-35.96819-36.108383l0-360.03596c0-19.909445 16.093537-36.108383 35.96819-36.108383l648.485511 0c19.910469 0 35.96819 16.145725 35.96819 36.108383L870.757339 332.01092900000003C870.757339 351.97358599999995 854.662779 368.11931100000004 834.788126 368.11931100000004zM474.524992-10.101822999999968L222.358809-10.101822999999968c-9.954723 0-17.992793 8.020674-17.992793 17.887392L204.366016 296.20135100000005c0 9.884115 8.196683 17.886369 17.992793 17.886369l252.166183 0L474.524992-10.101822999999968zM816.724725 7.7855690000000095c0-9.885138-8.195659-17.887392-17.992793-17.887392L546.566772-10.101822999999968 546.566772 314.088744l252.16516 0c9.955746 0 17.992793-8.019651 17.992793-17.886369L816.724725 7.7855690000000095zM870.669334 620.267075L692.56903 620.267075c19.557428 2.647293 38.658462 10.350742 54.910611 23.972994 45.729507 38.360679 51.674916 106.533338 13.331633 152.24545-38.378076 45.712111-106.515942 51.674916-152.24545 13.314237-16.708544-13.999852-28.106128-31.993668-33.980929-51.410903L511.301594 621.3927120000001c-0.245593-0.342808-0.317225-0.773619-0.562818-1.125637l-0.38681 0c-0.246617 0.352017-0.317225 0.782829-0.562818 1.125637l-63.284325 136.996141c-5.873778 19.417235-17.271362 37.411051-33.979906 51.410903-45.729507 38.360679-113.867374 32.397874-152.24545-13.314237-38.343283-45.712111-32.397874-113.885793 13.331633-152.24545 16.252149-13.622252 35.353183-21.325701 54.910611-23.972994L150.42243 620.267075c-19.910469 0-36.109406-16.198937-36.109406-36.178991l0-143.768381c0-19.892049 16.164145-36.178991 36.109406-36.178991l720.246905 0c19.909445 0 36.108383 16.198937 36.108383 36.178991L906.777717 584.088084C906.777717 604.015949 890.614595 620.267075 870.669334 620.267075zM630.832967 756.3494029999999c0.210801 0.474814 0.422625 0.932232 0.633427 1.38965l1.319042 2.849908 0.088004-0.105401c3.131317 5.680373 7.352455 10.886955 12.610202 15.318894 22.847357 19.207457 56.93471 16.234753 76.123748-6.665817 19.189038-22.864754 16.216333-56.951083-6.66684-76.122725-4.167926-3.518127-8.759501-6.296403-13.542434-8.336876l0.281409-0.334621-125.406175-46.433542L630.832967 756.3494029999999zM306.151213 693.012889c-22.883173 19.170618-25.855878 53.256948-6.66684 76.122725 19.189038 22.900569 53.275367 25.873274 76.122725 6.665817 5.259794-4.431939 9.480932-9.638521 12.611226-15.318894l0.088004 0.105401 1.319042-2.849908c0.210801-0.457418 0.421602-0.914836 0.632403-1.38965l54.559617-118.440529-125.406175 46.433542 0.281409 0.334621C314.909691 686.716486 310.31914 689.495786 306.151213 693.012889zM474.524992 458.172303L186.303638 458.172303c-9.91993 0-17.958 8.125051-17.958 17.851577l0 72.359005c0 9.867742 8.160867 17.8526 17.958 17.8526l288.221354 0L474.524992 458.172303zM852.746126 476.024903c0-9.866718-8.16189-17.851577-17.958-17.851577L546.566772 458.173326 546.566772 566.235484l288.221354 0c9.91993 0 17.958-8.126075 17.958-17.8526L852.746126 476.024903z"  horiz-adv-x="1024" />
      
      <glyph glyph-name="giftfill" unicode="&#58971;" d="M828.422138 359.63200900000004L192.668603 359.63200900000004c-19.518542 0-35.262108-15.829524-35.262108-35.400255L157.406494-28.734182000000033c0-19.518542 15.777335-35.400255 35.262108-35.400255l635.752512 0c19.518542 0 35.262108 15.829524 35.262108 35.400255L863.683223 324.23277800000005C863.684246 343.80350899999996 847.906911 359.63200900000004 828.422138 359.63200900000004zM545.859667-11.300115000000005c0-9.673313-7.810896-17.520025-17.811668-17.520025l-34.985816 0c-9.828856 0-17.812691 8.037047-17.812691 17.520025L475.249493 306.79973399999994c0 9.673313 7.829316 17.517979 17.812691 17.517979l34.985816 0c9.828856 0 17.811668-8.035 17.811668-17.517979L545.859667-11.300115000000005zM863.598288 606.8300409999999L621.090069 606.8300409999999l58.972113 16.500812c22.278399 1.104147 44.350091 9.225105 62.765509 24.657586 44.832068 37.606503 50.659797 104.440677 13.068643 149.255349C718.272435 842.059484 651.474077 847.904609 606.642009 810.298106c-16.381086-13.725606-27.555589-31.365358-33.31578-50.4009l-62.039985-134.306892c-0.343831-0.457418-0.448208-1.00898-0.741897-1.482771-0.293689 0.473791-0.396019 1.025353-0.741897 1.482771l-62.041008 134.306892c-5.759167 19.036565-16.932648 36.675294-33.313733 50.4009C369.617687 847.904609 302.818305 842.059484 265.193383 797.244812c-37.59013-44.814672-31.762401-111.648846 13.069667-149.255349 18.415418-15.432481 40.486086-23.554462 62.764486-24.657586l58.97109-16.500812L157.492452 606.8310650000001c-19.518542 0-35.400255-15.881712-35.400255-35.469839l0-140.944056c0-19.50217 15.84692-35.469839 35.400255-35.469839l706.104813 0c19.518542 0 35.400255 15.881712 35.400255 35.469839L898.99752 571.3602020000001C898.99752 590.897164 883.1506 606.8300409999999 863.598288 606.8300409999999zM628.45378 757.896642c0.224104 0.465604 0.431835 0.913812 0.63752 1.362021l1.293459 2.792603 0.088004-0.103354c3.067872 5.569856 7.207146 10.674107 12.361539 15.019065 22.399149 18.828834 55.816237 15.915481 74.629721-6.534833 18.811438-22.415522 15.897062-55.833633-6.535857-74.627674-4.087085-3.448542-8.586562-6.173606-13.277398-8.173147l0.276293-0.327458-122.943077-45.521776L628.45378 757.896642zM323.164702 687.302841l0.276293 0.327458c-4.689812 2.000564-9.18929 4.724605-13.277398 8.173147-22.432918 18.795065-25.347295 52.212152-6.534833 74.627674 18.812461 22.450315 52.228525 25.364691 74.627674 6.534833 5.155417-4.344958 9.312086-9.449209 12.363585-15.019065l0.085958 0.103354 1.293459-2.792603c0.206708-0.448208 0.413416-0.896416 0.638543-1.362021l53.470819-116.115578L323.164702 687.302841zM545.859667 447.865563c0-9.724479-7.810896-17.60496-17.811668-17.60496l-34.985816 0c-9.828856 0-17.812691 8.000208-17.812691 17.60496l0 106.045221c0 9.724479 7.829316 17.60496 17.812691 17.60496l34.985816 0c9.828856 0 17.811668-8.000208 17.811668-17.60496L545.859667 447.865563z"  horiz-adv-x="1024" />
      
      <glyph glyph-name="pouch" unicode="&#59023;" d="M701.37500029 562.12500029c-11.25 5.625-13.12499971 18.74999971-5.625 28.125 5.625 7.49999971 11.25 15.00000029 14.99999942 22.5 35.62499971 61.875 33.75 133.12500029-7.49999971 155.62499942-9.37500029 5.625-18.74999971 7.49999971-29.99999971 7.50000058-11.25 0-20.62500029-1.87499971-31.87500029-7.50000058-1.87499971-1.87499971-5.625-1.87499971-7.49999971-1.87499971-5.625 0-11.25 1.87499971-15.00000029 7.49999971-24.37499971 33.75-63.74999971 56.25-108.74999971 56.25s-84.375-22.5-108.75000058-56.25c-3.75000029-5.625-9.37500029-7.49999971-14.99999942-7.49999971-1.87499971 0-5.625 0-7.50000058 1.87499971-9.37500029 7.49999971-20.62500029 9.37500029-29.99999971 9.37500029-11.25 0-20.62500029-1.87499971-29.99999971-7.49999971-39.375-22.5-43.12500029-93.75000029-7.50000058-155.62500029 5.625-7.49999971 9.37500029-16.875 15.00000029-22.5 7.49999971-9.37500029 5.625-22.5-5.625-28.125C189.50000029 494.62500029 99.50000029 355.875 99.50000029 196.50000029c0-80.62499971 26.25000029-155.62500029 69.37499971-217.50000029 20.62500029-28.125 54.37500029-45 90-45h506.25c35.62499971 0 69.37499971 16.875 90 45C898.25000029 40.875 924.49999971 115.87499971 924.49999971 196.50000029c0 159.37499971-90 298.125-223.12499942 365.625zM512 65.24999971c0 103.12499971-84.375 187.49999971-187.49999971 187.50000058 103.12499971 0 187.49999971 84.375 187.49999971 187.49999971 0-103.12499971 84.375-187.49999971 187.49999971-187.49999971-103.12499971 0-187.49999971-84.375-187.49999971-187.50000058z"  horiz-adv-x="1024" />
      
      <glyph glyph-name="bomb" unicode="&#60154;" d="M836.31640625 678.43359375l-91.40625-91.40625L791.4921875 540.4453125c16.5234375-16.5234375 16.5234375-43.2421875 0-59.58984375l-30.5859375-30.5859375c20.7421875-45.87890625 32.34375-96.85546875 32.34375-150.46875 0-201.97265625-163.65234375-365.625-365.625-365.625S62 97.65234375 62 299.625 225.65234375 665.25 427.625 665.25c53.61328125 0 104.58984375-11.6015625 150.46875-32.34375L608.6796875 663.4921875c16.5234375 16.5234375 43.2421875 16.5234375 59.58984375 0l46.58203125-46.58203125 91.40625 91.40625 30.05859375-29.8828125zM940.90625 728.53125h-42.1875c-11.6015625 0-21.09375-9.4921875-21.09375-21.09375s9.4921875-21.09375 21.09375-21.09375h42.1875c11.6015625 0 21.09375 9.4921875 21.09375 21.09375s-9.4921875 21.09375-21.09375 21.09375zM835.4375 834c-11.6015625 0-21.09375-9.4921875-21.09375-21.09375v-42.1875c0-11.6015625 9.4921875-21.09375 21.09375-21.09375s21.09375 9.4921875 21.09375 21.09375V812.90625c0 11.6015625-9.4921875 21.09375-21.09375 21.09375z m59.58984375-96.6796875l29.8828125 29.8828125c8.26171875 8.26171875 8.26171875 21.62109375 0 29.8828125-8.26171875 8.26171875-21.62109375 8.26171875-29.8828125 0l-29.8828125-29.8828125c-8.26171875-8.26171875-8.26171875-21.62109375 0-29.8828125 8.4375-8.26171875 21.796875-8.26171875 29.8828125 0z m-119.1796875 0c8.26171875-8.26171875 21.62109375-8.26171875 29.8828125 0 8.26171875 8.26171875 8.26171875 21.62109375 0 29.8828125l-29.8828125 29.8828125c-8.26171875 8.26171875-21.62109375 8.26171875-29.8828125 0-8.26171875-8.26171875-8.26171875-21.62109375 0-29.8828125l29.8828125-29.8828125z m119.1796875-59.765625c-8.26171875 8.26171875-21.62109375 8.26171875-29.8828125 0-8.26171875-8.26171875-8.26171875-21.62109375 0-29.8828125l29.8828125-29.8828125c8.26171875-8.26171875 21.62109375-8.26171875 29.8828125 0 8.26171875 8.26171875 8.26171875 21.62109375 0 29.8828125l-29.8828125 29.8828125zM258.875 355.875c0 62.05078125 50.44921875 112.5 112.5 112.5 15.46875 0 28.125 12.65625 28.125 28.125s-12.65625 28.125-28.125 28.125c-92.98828125 0-168.75-75.76171875-168.75-168.75 0-15.46875 12.65625-28.125 28.125-28.125s28.125 12.65625 28.125 28.125z"  horiz-adv-x="1024" />
      
      <glyph glyph-name="loading" unicode="&#58888;" d="M557 114a90 90 0 1 0 0-180 90 90 0 0 0 0 180z m-281.655 135a112.5 112.5 0 1 0 0-225 112.5 112.5 0 0 0 0 225z m521.01-22.5a90 90 0 1 0 0-180 90 90 0 0 0 0 180zM894.5 414.645a67.5 67.5 0 1 0 0-135 67.5 67.5 0 0 0 0 135zM174.5 564a112.5 112.5 0 1 0 0-225 112.5 112.5 0 0 0 0 225z m687.87 35.685a45 45 0 1 0 0-90 45 45 0 0 0 0 90zM422 834a135 135 0 1 0 0-270 135 135 0 0 0 0 270z m337.5-135a22.5 22.5 0 1 0 0-45 22.5 22.5 0 0 0 0 45z"  horiz-adv-x="1024" />
      
      <glyph glyph-name="visible" unicode="&#59087;" d="M987.06666688 413.33333344s-4.00000031 12-8.00000063 16.00000031l-19.99999969 39.99999938c-19.99999969 31.99999969-48 72-88.00000031 116.00000062C795.06666688 669.3333337500001 675.06666688 757.33333312 511.06666625 757.33333312s-283.99999969-88.00000031-360-171.99999937c-40.00000031-43.99999969-67.99999969-84-87.99999938-116.00000063-7.99999969-16.00000031-16.00000031-28.00000031-20.00000062-39.99999937-4.00000031-4.00000031-7.99999969-16.00000031-7.99999969-16.00000031-4.00000031-12-4.00000031-24 0-31.99999969 0 0 4.00000031-12 7.99999969-16.00000031l20.00000063-40.00000032c19.99999969-31.99999969 48-72 87.99999937-115.99999968 76.00000031-84 196.00000031-172.00000031 360-172.00000032s283.99999969 88.00000031 360 172.00000032c40.00000031 43.99999969 67.99999969 84 88.00000031 115.99999968 7.99999969 16.00000031 16.00000031 28.00000031 19.99999969 40.00000032 4.00000031 4.00000031 7.99999969 16.00000031 8.00000063 16.00000031 4.00000031 12 4.00000031 19.99999969 0 31.99999969z m-96.00000001-43.99999969c-16.00000031-28.00000031-43.99999969-67.99999969-76.00000031-104.00000062-72-76.00000031-172.00000031-148.00000031-304.00000031-147.99999938s-232.00000031 72-303.99999938 147.99999937c-36 36-60 76.00000031-76.00000031 104.00000063-7.99999969 12-12 19.99999969-16.00000031 27.99999937 4.00000031 7.99999969 7.99999969 16.00000031 16.00000031 28.00000032 19.99999969 28.00000031 43.99999969 67.99999969 76.00000032 103.99999968C279.06666688 605.3333334399999 379.06666625 677.3333334399999 511.06666625 677.3333334399999s232.00000031-72 304.00000031-148.00000031c36-36 60-76.00000031 76.00000031-103.99999969 7.99999969-12 12-19.99999969 15.99999938-28.00000031-4.00000031-7.99999969-12-16.00000031-15.99999938-27.99999938zM511.06666625 541.33333313c-72 0-136.00000031-64.00000031-135.99999937-144 0-79.99999969 64.00000031-144 135.99999937-144 72 0 136.00000031 64.00000031 136.00000031 144 0 79.99999969-64.00000031 144-136.00000031 144z m-216-144c0 120 96 223.99999969 216 224.00000062s216-103.99999969 216-224.00000062-96-223.99999969-216-223.99999969-216 103.99999969-216 223.99999969z"  horiz-adv-x="1024" />
      
      <glyph glyph-name="invisible" unicode="&#59088;" d="M512.02080031 351.73333313c-172.66666687 0-345.06666656 52.42666688-467.92000031 157.06666687a35.22666656 35.22666656 0 0 0-3.28000031 49.84000031 35.57333344 35.57333344 0 0 0 50.08000031 3.25333313c216.64000031-186.40000031 626.53333313-186.40000031 842.23999969 0a35.57333344 35.57333344 0 0 0 50.08000031-3.25333313c12.90666656-14.66666625 11.46666656-36.98666625-3.28000031-49.86666656C857.08746688 404.16 684.68746625 351.73333313 512.02080031 351.73333313z m-128.21333343-154.23999938a28.90666687 28.90666687 0 0 0-6.32000063 0c-9.67999969 1.33333313-18.40000031 6.66666656-23.94666656 14.66666625-5.57333344 8.02666688-7.46666625 18.02666625-5.28 27.52000031l23.38666687 137.46666656a35.59999969 35.59999969 0 0 0 41.17333313 28.87999969 35.46666656 35.46666656 0 0 0 29.01333375-41.01333281l-23.38666688-137.44000031a35.04 35.04 0 0 0-34.63999968-30.07999969z m525.94666687 69.91999969c-9.33333375 0-18.29333344 3.78666656-24.80000062 10.48000031l-115.33333313 116.47999969a34.85333344 34.85333344 0 0 0 15.04000031 60.42666656 35.20000031 35.20000031 0 0 0 34.77333282-11.49333375l115.36000031-116.47999969c13.68-13.65333375 13.68-35.76 0-49.41333281-6.77333344-6.40000031-15.73333313-9.97333312-25.06666688-10.00000031z m-795.46666687 0a36.55999969 36.55999969 0 0 0-23.38666688 10.00000031 34.85333344 34.85333344 0 0 0 0 49.41333281l115.33333313 116.47999969a35.17333312 35.17333312 0 0 0 63.25333312-13.2533325 34.87999969 34.87999969 0 0 0-14.82666656-35.68000031l-115.33333313-116.47999969a34.69333313 34.69333313 0 0 0-25.03999968-10.48000031z m527.57333343-69.91999969a35.04 35.04 0 0 0-34.40000062 28.90666594l-23.38666594 137.46666656a34.85333344 34.85333344 0 0 0 9.14666625 36.40000031 35.20000031 35.20000031 0 0 0 36.96 7.2c12.69333375-4.98666656 21.33333375-16.8 22.21333313-30.31999969l23.38666687-137.46666656c1.70666625-9.12-0.31999969-18.53333344-5.65333312-26.16-5.33333344-7.62666656-13.46666625-12.79999969-22.66666688-14.4a28.87999969 28.87999969 0 0 0-5.59999969-1.60000031z"  horiz-adv-x="1024" />
      
      <glyph glyph-name="yanjing2" unicode="&#59089;" d="M512 629.276444c-19.996444 0-39.196444-1.422222-57.628444-4.124444-23.324444-3.356444-45.056 12.088889-48.554667 34.531556-3.527111 22.442667 12.515556 43.377778 35.84 46.734222 22.613333 3.299556 46.08 5.034667 70.343111 5.034666 175.388444 0 303.36-91.022222 385.308444-177.777777a761.059556 761.059556 0 0 0 114.858667-159.175111c2.56-4.864 5.063111-9.756444 7.480889-14.705778l0.426667-0.938667 0.170666-0.341333v-0.085334l0.028445-0.028444-38.968889-16.725333 39.025778-16.725334-0.085334-0.113777-0.085333-0.227556-0.341333-0.739556a624.355556 624.355556 0 0 0-22.613334-41.642666 770.389333 770.389333 0 0 0-67.84-96.227556 43.804444 43.804444 0 0 0-59.591111-6.144 40.078222 40.078222 0 0 0-7.196444 57.287111 686.478222 686.478222 0 0 1 71.168 104.533334 678.968889 678.968889 0 0 1-99.555556 136.675555C760.945778 555.946667 654.165333 629.276444 512 629.276444z m469.333333-287.601777l38.968889-16.725334a39.822222 39.822222 0 0 1 0 33.450667l-38.968889-16.725333zM186.965333 536.405333c8.391111-7.338667 13.368889-17.578667 13.909334-28.444444 0.512-10.894222-3.470222-21.532444-11.093334-29.582222a679.168 679.168 0 0 1-99.555555-136.704 679.367111 679.367111 0 0 1 99.555555-136.704C263.111111 127.431111 369.834667 54.072889 512 54.072889a394.808889 394.808889 0 0 1 134.4 23.239111c21.902222 7.395556 45.909333-3.470222 54.044444-24.405333 8.106667-20.935111-2.616889-44.259556-24.177777-52.536889A483.185778 483.185778 0 0 0 512-28.103111c-175.388444 0-303.36 91.022222-385.308444 177.777778a760.917333 760.917333 0 0 0-114.858667 159.175111c-2.56 4.835556-5.063111 9.756444-7.480889 14.705778l-0.426667 0.938666-0.170666 0.341334-0.028445 0.056888v0.056889l38.968889 16.725334L3.640889 358.4l0.056889 0.028444 0.028444 0.085334 0.142222 0.341333 0.426667 0.938667 1.621333 3.185778c8.817778 17.464889 18.488889 34.531556 28.842667 51.171555a763.505778 763.505778 0 0 0 91.875556 119.523556 43.349333 43.349333 0 0 0 29.582222 13.368889c11.292444 0.540444 22.357333-3.299556 30.72-10.638223zM42.666667 341.674667L3.697778 358.4a39.822222 39.822222 0 0 1 0-33.450667l38.968889 16.725334zM469.816889 531.456c0 22.784 19.000889 41.272889 42.439111 41.272889 128.113778 0 229.233778-104.391111 229.233778-229.916445 0-14.734222-8.106667-28.359111-21.219556-35.754666a43.52 43.52 0 0 0-42.467555 0 41.073778 41.073778 0 0 0-21.219556 35.754666c0 82.915556-66.133333 147.370667-144.327111 147.370667-23.438222 0-42.439111 18.488889-42.439111 41.272889z m-130.929778-107.008c22.926222-4.807111 37.489778-26.737778 32.568889-49.038222a151.04 151.04 0 0 1-3.527111-32.597334c0-82.915556 66.133333-147.370667 144.327111-147.370666 11.207111 0 22.072889 1.28 32.483556 3.697778 22.755556 5.376 45.710222-8.248889 51.2-30.407112 5.546667-22.158222-8.476444-44.458667-31.260445-49.806222a229.063111 229.063111 0 0 0-52.423111-5.973333c-128.113778 0-229.233778 104.391111-229.233778 229.916444 0 17.066667 1.877333 33.848889 5.432889 49.92 2.360889 10.695111 9.016889 20.053333 18.488889 25.998223 9.443556 5.973333 20.935111 7.992889 31.943111 5.688888v-0.028444zM100.209778 784.696889a43.320889 43.320889 0 0 0 60.017778 0L924.302222 41.813333c16.099556-16.213333 15.872-41.955556-0.512-57.856a43.320889 43.320889 0 0 0-59.505778-0.512L100.209778 726.328889a40.476444 40.476444 0 0 0 0 58.368z"  horiz-adv-x="1024" />
      
      <glyph glyph-name="yanjing3" unicode="&#59105;" d="M512.002844 725.333333c234.723556 0 433.607111-223.971556 500.679112-309.048889a51.683556 51.683556 0 0 0 0-64.568888C945.609956 266.638222 746.7264 42.666667 512.002844 42.666667S78.395733 266.638222 11.323733 351.715556a51.683556 51.683556 0 0 0 0 64.568888C78.395733 501.361778 277.279289 725.333333 512.002844 725.333333z m0-183.808c-62.122667 0-118.129778-38.371556-141.880888-97.251555-23.779556-58.88-10.638222-126.606222 33.28-171.662222a150.755556 150.755556 0 0 1 167.367111-34.133334C628.169956 262.826667 665.602844 320.284444 665.602844 384c0 87.011556-68.750222 157.525333-153.571555 157.525333z"  horiz-adv-x="1024" />
      
      <glyph glyph-name="red" unicode="&#58894;" d="M779.93778799 779.16507773l-537.33168897 0c-17.41219453 0-31.65943448-14.07815508-31.65943447-31.4597707l0-727.38183515c0-17.44367344 14.1707918-31.48945049 31.65943447-31.4894505l537.33168897 0c17.41129541 0 31.65943448 14.10783487 31.65943447 31.4894505L811.59722334 747.70530791C811.59722334 765.1184015599999 797.42643067 779.16507773 779.93778799 779.16507773zM764.17777373 52.09083426999996c0-8.73577705-7.14655459-15.8373624-15.69885644-15.8373624L274.0640706 36.253471880000006c-8.67551836 0-15.69795644 7.13216425-15.69795644 15.83736239L258.36611416 715.9073665999999c0 8.76815508 7.14655459 15.8373624 15.69795644 15.83736241l474.41394757 0c8.67551836 0 15.69885644-7.10158535 15.69885644-15.8373624L764.17687373 52.09083426999996zM510.88610498 297.89687783l-81.93534785 135.43737363c-3.41138672 5.67964951-7.965 7.9641-12.90535049 7.9641-3.41138672 0-6.82277432-1.14222568-10.23416104-3.05612753-5.69583808-3.02464951-9.8636124-8.33554864-9.8636124-14.41632569 0-2.655 0.7563876-5.31 2.655-7.96589912l64.86222305-100.51944785-52.72944961 0c-8.33644776 0-12.88916104-4.16867344-12.88916104-12.90624961 0-8.70609727 4.55271328-12.87207246 12.88916104-12.87207246l68.65944873 0 14.41722481-22.38312393 0-17.84390185-83.44722305 0c-8.73757617 0-12.90535049-3.79812481-12.90535049-12.50332295 0-8.73757617 4.5536124-12.90445049 12.90535049-12.90445049l83.44722305 0 0-67.14667441c0-10.24945049 6.45222568-15.56035049 17.0722248-15.56035049 10.24945049 0 17.07222481 5.31 17.07222481 15.56035049l0 67.14667441 83.07667441 0c7.965 0 12.90535049 4.1668752 12.90535049 12.90445049 0 9.0766459-4.16777432 12.50332295-12.90535049 12.50332295l-83.07667441 0 0 17.44367343 14.04667617 22.78335323 69.41673545 0c7.9641 0 12.88916104 4.1668752 12.88916103 13.27499912 0 8.70609727-4.53832295 12.50332295-12.88916103 12.50332294l-53.11618682 0 64.49167442 100.51944786c1.8986124 3.05612754 2.655 5.71202753 2.655 8.36702753 0 5.67964951-3.79722568 10.62-9.47777432 14.01519727-3.41138672 2.28535049-7.2086124 3.42757617-10.62 3.42757617-4.93945137 0-9.86451153-2.28445136-13.27589912-8.33554863L510.88610498 297.89687783zM711.41594609 635.94887842c-0.91108213 13.0591459-12.25599082 22.90746885-25.29984638 21.98019726-1.17370459-0.06115869-2.28445136-0.30849082-3.36461836-0.58640273l-3.21082295-0.92547246-0.07734726 0.06115869c-43.22109638-18.73969453-90.13149053-30.84098994-139.8048126-34.32972481-68.33476933-4.78475596-133.92369932 7.06920732-193.13685352 31.67472481l-0.0305789-0.0305789-1.72862843 0.55582294-0.20146376-0.49466426c-0.06115869 0.03147891-0.12321651 0.06205781-0.16908575 0.06205781l0.03057891 0.52434493-4.30628027 1.38955781-4.27570137 1.35897891c-2.10007617 0.67903945-6.09696651 0.67903945-6.14373487 0.67903945l-1.97596055-0.18527431c-13.0591459-0.89489355-21.1473624-12.62653945-20.25246884-25.68658448 0.40112842-5.67964951 2.99496973-10.77379541 6.82277431-14.66455781 0.03057891-0.06115869 0.09353672-0.0926376 0.12411563-0.1232165 0.58640273-0.58640273 1.37336924-0.92637158 2.00653945-1.45071651 4.16777432-2.5632624 12.25599082-5.77318536 12.25599083-5.77318535 65.51068359-27.07524317 138.33790664-40.31966338 213.85160859-35.04024229 54.56690332 3.82870371 106.50938643 16.70167617 154.08353144 37.13941935l-0.10792704 0.2779119C705.82893418 616.0660590800001 712.14175391 625.38913799 711.41594609 635.94887842z"  horiz-adv-x="1024" />
      
      <glyph glyph-name="redfill" unicode="&#58895;" d="M210.94576455 747.70530791c0 17.38071563 14.24723994 31.4597707 31.65943447 31.45977071l537.33168897 0c17.48864268 0 31.65943448-14.04667617 31.65943447-31.45977071l0-727.38183515c0-17.38161562-14.24813994-31.48945049-31.65943447-31.48945049L242.60609902-11.165977730000009c-17.48864268 0-31.65943448 14.04577705-31.65943447 31.48945049L210.94666455 747.70530791zM510.88610498 297.89687783l-81.93534785 135.43737363c-3.41138672 5.67964951-7.965 7.9641-12.90535049 7.9641-3.41138672 0-6.82277432-1.14222568-10.23416104-3.05612753-5.69583808-3.02464951-9.8636124-8.33554864-9.8636124-14.41632569 0-2.655 0.7563876-5.31 2.655-7.96589912l64.86222305-100.51944785-52.72944961 0c-8.33644776 0-12.88916104-4.16867344-12.88916104-12.90624961 0-8.70609727 4.55271328-12.87207246 12.88916104-12.87207246l68.65944873 0 14.41722481-22.38312393 0-17.84390185-83.44722305 0c-8.73757617 0-12.90535049-3.79812481-12.90535049-12.50332295 0-8.73757617 4.5536124-12.90445049 12.90535049-12.90445049l83.44722305 0 0-67.14667441c0-10.24945049 6.45222568-15.56035049 17.0722248-15.56035049 10.24945049 0 17.07222481 5.31 17.07222481 15.56035049L527.95653154 223.92652998000005l83.07667442 0c7.965 0 12.90535049 4.1668752 12.90535049 12.90445049 0 9.0766459-4.16777432 12.50332295-12.90535049 12.50332295l-83.07667442 0 0 17.44367343 14.04667617 22.78335323 69.41673546 0c7.9641 0 12.88916104 4.1668752 12.88916103 13.27499912 0 8.70609727-4.53832295 12.50332295-12.88916103 12.50332295l-53.11618682 0 64.49167441 100.51944785c1.8986124 3.05612754 2.655 5.71202753 2.655 8.36702754 0 5.67964951-3.79722568 10.62-9.47777431 14.01519727-3.41138672 2.28535049-7.2086124 3.42757617-10.62 3.42757617-4.93945137 0-9.86451153-2.28445136-13.27589913-8.33554864L510.88610498 297.89687783zM711.41594609 635.94887842c-0.91108213 13.0591459-12.25599082 22.90746885-25.29984638 21.98019726-1.17370459-0.06115869-2.28445136-0.30849082-3.36461836-0.58640273l-3.21082295-0.92547246-0.07734726 0.06115869c-43.22109638-18.73969453-90.13149053-30.84098994-139.8048126-34.32972481-68.33476933-4.78475596-133.92369932 7.06920732-193.13685352 31.67472481l-0.0305789-0.0305789-1.72862843 0.55582294-0.20146376-0.49466426c-0.06115869 0.03147891-0.12321651 0.06205781-0.16908575 0.06205781l0.03057891 0.52434493-4.30628027 1.38955781-4.27570137 1.35897891c-2.10007617 0.67903945-6.09696651 0.67903945-6.14373487 0.67903945l-1.97596055-0.18527431c-13.0591459-0.89489355-21.1473624-12.62653945-20.25246884-25.68658448 0.40112842-5.67964951 2.99496973-10.77379541 6.82277431-14.66455781 0.03057891-0.06115869 0.09353672-0.0926376 0.12411563-0.1232165 0.58640273-0.58640273 1.37336924-0.92637158 2.00653945-1.45071651 4.16777432-2.5632624 12.25599082-5.77318536 12.25599083-5.77318535 65.51068359-27.07524317 138.33790664-40.31966338 213.85160859-35.04024229 54.56690332 3.82870371 106.50938643 16.70167617 154.08353144 37.13941935l-0.10792704 0.2779119C705.82893418 616.0660590800001 712.14175391 625.38913799 711.41594609 635.94887842z"  horiz-adv-x="1024" />
      
      <glyph glyph-name="hair" unicode="&#58912;" d="M636.5184 847.872c-1.1264 14.1312-13.5168 24.5248-27.5968 23.4496-14.08-1.1776-24.5248-13.5168-23.3984-27.648 12.7488-155.6992-43.1104-256.9216-175.7184-318.464-183.8592-85.4016-314.0096-232.7552-329.1648-320.3584-2.4064-13.8752 6.9632-27.136 20.8896-29.5936 1.4336-0.256 2.9696-0.3584 4.4032-0.3584 12.1856 0 22.9888 8.8064 25.1904 21.248 10.9568 63.5904 124.2112 200.8576 300.2368 282.624C583.936 549.6320000000001 651.0592 670.3616 636.5184 847.872zM577.0752 349.54240000000004c152.5248 70.8608 219.6992 191.5904 205.1584 369.0496-1.1264 14.1312-13.824 24.2176-27.5968 23.4496-14.08-1.1776-24.5248-13.5168-23.3984-27.648 12.7488-155.6992-43.1104-256.9216-175.7696-318.464-183.8592-85.4016-313.9584-232.8064-329.1136-320.3584-2.4064-13.8752 6.9632-27.136 20.8896-29.5936 1.4336-0.256 2.9696-0.3584 4.4032-0.3584 12.1856 0 22.9888 8.8064 25.1904 21.248C287.7952 130.55999999999995 401.0496 267.77599999999995 577.0752 349.54240000000004zM911.36 569.5488c-1.1264 14.08-13.8752 24.4224-27.5968 23.4496-14.08-1.1776-24.5248-13.5168-23.3984-27.648 12.7488-155.6992-43.0592-256.9216-175.6672-318.464-183.9616-85.4016-314.0608-232.8064-329.1648-320.3584-2.4064-13.9264 6.9632-27.1872 20.8896-29.5936 1.4848-0.256 2.9696-0.3584 4.4032-0.3584 12.1856 0 23.04 8.8064 25.1904 21.248 10.9568 63.5904 124.16 200.8576 300.2368 282.6752C858.7776 271.3088 925.9008 391.9872 911.36 569.5488z"  horiz-adv-x="1024" />
      
      <glyph glyph-name="syringe" unicode="&#58974;" d="M953.846309 643.701126a39.767848 39.767848 0 0 1 28.239891-11.719955 39.759848 39.759848 0 0 1 28.223892 11.719955 40.063847 40.063847 0 0 1 0 56.567783L826.662795 884.276205a39.863847 39.863847 0 0 1-56.455783 0 40.047847 40.047847 0 0 1 0-56.567784l63.599756-63.719756-64.975751-65.09575L618.99959 848.340342a39.871847 39.871847 0 0 1-56.455783-0.127999 40.055847 40.055847 0 0 1 0.119999-56.567784l41.423841-41.311841-405.702446-403.982454a40.039847 40.039847 0 0 1-0.016-56.719783l24.735905-24.679905-85.487673-84.503677a40.031847 40.031847 0 0 1 0.048-56.999782l28.65589-28.231891-154.623408-154.935407a40.047847 40.047847 0 0 1 0-56.567784A39.759848 39.759848 0 0 1 39.921807-127.99992a39.783848 39.783848 0 0 1 28.239892 11.711955l155.103406 155.423405 30.175885-29.711886a39.735848 39.735848 0 0 1 27.983893-11.479956 39.759848 39.759848 0 0 1 28.239892 11.719955l84.503676 84.671676 24.775905-24.719905a39.743848 39.743848 0 0 1 28.159892-11.647956 39.759848 39.759848 0 0 1 28.111893 11.583956l219.575159 218.007165a40.039847 40.039847 0 0 1 0.048 56.783783l-86.335669 85.999671a39.863847 39.863847 0 0 1-56.455784-0.16 40.055847 40.055847 0 0 1 0.159999-56.575783l57.807779-57.58378-55.719787-55.319788-57.38378 55.943786a39.879847 39.879847 0 0 1-56.455784-0.775997 40.063847 40.063847 0 0 1 0.775997-56.559784l56.335784-54.927789-50.399807-50.039809-164.015372 163.607374 377.518555 375.934561 163.983372-163.551374-68.319738-67.96774a40.063847 40.063847 0 0 1-0.2-56.567783 39.767848 39.767848 0 0 1 28.327892-11.823955 39.759848 39.759848 0 0 1 28.127892 11.615955l68.647738 68.303739 41.73584-41.631841a39.775848 39.775848 0 0 1 28.159892-11.647955c10.247961 0 20.503922 3.919985 28.303892 11.783955a40.055847 40.055847 0 0 1-0.128 56.567783l-153.887411 153.487413 64.839752 64.959751 63.583757-63.711756z m-672.661425-549.429897l-58.639776 57.751779 57.143781 56.487784 57.887779-57.735779-56.391784-56.503784z"  horiz-adv-x="1024" />
      
      <glyph glyph-name="bug" unicode="&#58994;" d="M978.808604 399.064178c12.572444 0 23.239111-4.408889 32-13.198222 8.817778-8.760889 13.198222-19.427556 13.198223-32 0-12.515556-4.408889-23.210667-13.198223-32a43.576889 43.576889 0 0 0-32-13.169778h-120.462222v-45.169778c0-53.959111-13.795556-104.163556-41.415111-150.584889l103.537778-103.537778c8.789333-8.789333 13.169778-19.456 13.169778-32 0-12.544-4.380444-23.210667-13.169778-32a43.576889 43.576889 0 0 0-32-13.169777c-12.544 0-23.210667 4.380444-32 13.169777l-96 96c-57.742222-52.707556-125.496889-79.075556-203.292445-79.075555h-90.339555c-77.824 0-145.578667 26.368-203.320889 79.075555L167.51616-54.59626700000001a43.576889 43.576889 0 0 0-32-13.169777c-12.515556 0-23.210667 4.380444-32 13.169777a43.576889 43.576889 0 0 0-13.169778 32c0 12.544 4.408889 23.210667 13.169778 32L207.053938 112.94151099999999a289.479111 289.479111 0 0 0-41.415111 150.584889v45.169778H45.176604c-12.544 0-23.210667 4.408889-32 13.169778a43.576889 43.576889 0 0 0-13.169777 32c0 12.572444 4.380444 23.239111 13.169777 32a43.576889 43.576889 0 0 0 32 13.198222h120.462223v176.924444L88.497493 653.1584a43.576889 43.576889 0 0 0-13.169777 32c0 12.572444 4.380444 23.239111 13.169777 32a43.576889 43.576889 0 0 0 32 13.198222c12.544 0 23.210667-4.408889 32-13.198222l77.169778-77.169778h28.245333c0 70.257778 25.088 130.503111 75.292445 180.707556 50.204444 50.204444 110.421333 75.292444 180.707555 75.292444 70.257778 0 130.503111-25.088 180.707556-75.292444 50.204444-50.204444 75.292444-110.421333 75.292444-180.707556h24.462223l77.169777 77.169778a43.576889 43.576889 0 0 0 32 13.198222c12.572444 0 23.239111-4.408889 32-13.198222 8.817778-8.760889 13.198222-19.427556 13.198223-32 0-12.515556-4.408889-23.210667-13.198223-32l-77.169777-77.169778v-176.924444zM630.591716 756.696178c-32.625778 32.625778-71.537778 48.924444-116.707556 48.924444-45.169778 0-84.081778-16.298667-116.707556-48.924444-32.625778-32.625778-48.924444-71.537778-48.924444-116.707556h331.264c0 45.169778-16.298667 84.081778-48.924444 116.707556z m-73.415112-704c57.742222 0 107.292444 20.707556 148.707556 62.122666 41.415111 41.415111 62.122667 90.993778 62.122667 148.707556v286.122667h-512v-286.151111c0-57.685333 20.707556-107.264 62.122666-148.679112 41.386667-41.415111 90.965333-62.122667 148.707556-62.122666v353.877333c0 15.075556 7.509333 22.584889 22.584889 22.584889h45.169778c15.075556 0 22.584889-7.509333 22.584888-22.584889z"  horiz-adv-x="1024" />
      
      <glyph glyph-name="scissors" unicode="&#58941;" d="M512 293.504l-98.858667-98.858667a170.666667 170.666667 0 1 0-90.496 90.496L421.546667 384 179.626667 625.7919999999999a85.333333 85.333333 0 0 0 0 120.704l30.208 30.165333L512 474.453333l302.122667 302.165334 30.208-30.165334a85.333333 85.333333 0 0 0 0-120.704L602.453333 384l98.858667-98.858667a170.666667 170.666667 0 1 0-90.496-90.496L512 293.54666699999996zM256 42.66666699999996a85.333333 85.333333 0 1 1 0 170.666666 85.333333 85.333333 0 0 1 0-170.666666z m512 0a85.333333 85.333333 0 1 1 0 170.666666 85.333333 85.333333 0 0 1 0-170.666666z"  horiz-adv-x="1024" />
      
      <glyph glyph-name="source" unicode="&#58940;" d="M1156.840682 542.1754209999999c-31.727914 41.348636-87.200589 49.638833-134.690112 16.580394L617.875537 806.847632c0 16.478046-7.880804 33.058439-23.744761 49.536485-39.608718 49.638833-95.081394 49.638833-134.690112 16.580394-15.863957-16.580394-23.744761-33.058439-31.727914-57.92903L205.822048 682.801724a106.339686 106.339686 0 0 1-87.098241 16.478045c-47.591871-16.478046-79.319785-66.116879-63.455828-115.653364 7.983153-41.450984 47.591871-66.219227 79.319785-66.219226l55.472675-239.801621c-23.84711-16.478046-47.591871-49.536485-47.591871-82.594924 0-57.92903 39.608718-99.277666 95.183742-99.277667 23.642413 0 47.489523 8.187849 55.370328 24.870591L522.99884-11.834895999999958v-16.580393c0-57.826682 39.608718-99.175318 95.081393-99.175319s95.081394 41.348636 95.081394 99.277667c0 16.478046 0 33.058439-7.983152 41.246288l348.700009 380.325575c31.727914-16.478046 71.336632-8.187849 95.183741 16.580393 31.727914 33.058439 39.608718 90.987469 7.880805 132.233758zM649.603451 54.384330999999975c-7.880804 0-15.761609 8.290197-23.744761 8.290197l-47.489523 239.801621c39.608718 16.478046 63.35348 57.826682 71.234284 107.465515l340.819205 16.478045-340.819205-372.035378zM332.631356 178.53258800000003v16.580394c0 8.187849 0 16.478046-7.880805 24.768242l118.826156 99.277666c15.863957-16.580394 47.591871-24.870591 71.336632-24.87059l47.591871-239.801621-7.983153-8.187849L332.631356 178.32789200000002z m-79.217437 107.465515l-55.472675 239.801621 206.026744-90.98747v-16.478045c0-16.580394 0-33.058439 7.983153-49.638834l-118.928503-90.987469c-15.863957 8.290197-23.744761 8.290197-39.608719 8.290197z m190.162788 463.022847s0-8.187849 7.983152-8.187848c15.863957-16.580394 23.744761-24.870591 39.608719-24.870591v-165.394545c-23.744761-16.478046-47.591871-33.058439-63.455828-57.826682l-190.162788 82.697273c0 16.478046 7.983153 33.058439 0 49.536485l206.026745 124.045908z m158.537221 0L998.30346 500.929133v-8.290197l-364.461618-24.870591a127.014004 127.014004 0 0 1-79.319785 66.219227V699.279769c7.983153 0 15.863957 8.290197 31.727914 16.580394 0 16.478046 7.880804 24.768243 15.863957 33.058439z"  horiz-adv-x="1228" />
      
      <glyph glyph-name="ruler" unicode="&#59155;" d="M1008.010504 626.723463L752.172042 880.962934c-25.583846 20.786875-59.162644 20.786875-81.54851-4.796971l-63.959615-68.756586-591.626444-585.230482c-20.786875-25.583846-20.786875-59.162644 4.796972-81.54851l251.04149-251.041491c12.791923-12.791923 25.583846-17.588894 43.172741-17.588894s30.380817 4.796971 43.17274 17.588894l655.586059 655.586059c15.989904 22.385865 15.989904 59.162644-4.796971 81.54851z m-695.560818-655.586059L99.783964 183.80312600000002l7.994952 7.994951 55.964664-55.964663c7.994952-7.994952 20.786875-12.791923 30.380817-12.791923 7.994952 0 20.786875 4.796971 30.380817 12.791923 17.588894 17.588894 17.588894 43.17274 0 59.162644l-55.964663 59.162645 46.370721 43.17274 97.538414-97.538414c7.994952-7.994952 20.786875-12.791923 30.380817-12.791923s20.786875 4.796971 30.380817 12.791923c17.588894 17.588894 17.588894 43.17274 0 59.162645l-97.538413 97.538413 46.370721 46.370722 55.964663-55.964664c7.994952-7.994952 20.786875-12.791923 30.380818-12.791923 12.791923 0 20.786875 4.796971 30.380817 12.791923 17.588894 17.588894 17.588894 43.17274 0 59.162644l-57.563654 59.162645 43.172741 43.17274 97.538413-97.538413c7.994952-7.994952 20.786875-12.791923 30.380818-12.791924 9.593942 0 20.786875 4.796971 30.380817 12.791924 17.588894 17.588894 17.588894 43.17274 0 59.162644l-97.538414 97.538414 46.370722 46.370721 55.964663-55.964664c7.994952-7.994952 17.588894-12.791923 30.380818-12.791923s20.786875 4.796971 30.380817 12.791923c17.588894 17.588894 17.588894 43.17274 0 59.162645l-59.162644 55.964663 46.370721 46.370721 97.538413-97.538413c7.994952-7.994952 17.588894-12.791923 30.380818-12.791923 12.791923 0 20.786875 4.796971 30.380817 12.791923 17.588894 17.588894 17.588894 43.17274 0 59.162644l-97.538413 97.538414 17.588894 17.588894L928.060985 583.550722 312.449686-28.862596000000053z"  horiz-adv-x="1024" />
      
      <glyph glyph-name="crownfill" unicode="&#59254;" d="M990.016 577.344c0 61.536-50.048 111.584-111.616 111.584s-111.616-50.048-111.616-111.584c0-52.704 36.8-96.736 86.016-108.384-44.224-88.16-102.656-170.112-133.952-170.112-30.464 0-91.872 88.864-153.984 259.136 44.672 19.648 75.104 63.968 75.104 115.136 0 69.632-56.672 126.272-126.304 126.272-69.664 0-126.336-56.672-126.336-126.272 0-51.296 30.56-95.68 75.36-115.232-66.112-183.168-123.648-250.656-147.264-250.656-43.872 0-104.8 85.312-144.448 161.76 49.248 11.616 86.112 55.68 86.112 108.416 0 61.536-50.08 111.584-111.616 111.584S33.856 638.88 33.856 577.344c0-42.176 23.808-78.528 58.432-97.504l22.112-445.504c0.512-10.368 6.016-19.84 14.784-25.408 4.64-2.976 116.704-72.16 384.48-72.16 267.776 0 379.84 69.44 384.48 72.384 8.8 5.632 14.304 15.168 14.784 25.6l19.712 445.664C966.688 499.488 990.016 535.552 990.016 577.344z"  horiz-adv-x="1024" />
      
      <glyph glyph-name="crown" unicode="&#59255;" d="M991.232 575.744c0 61.536-50.048 111.584-111.616 111.584s-111.616-50.048-111.616-111.584c0-52.704 36.8-96.736 86.016-108.384-44.224-88.16-102.656-170.112-133.952-170.112-30.464 0-91.872 88.864-153.984 259.136 44.672 19.648 75.104 63.968 75.104 115.136 0 69.632-56.672 126.272-126.304 126.272-69.664 0-126.336-56.672-126.336-126.272 0-51.296 30.56-95.68 75.36-115.232-66.112-183.168-123.648-250.656-147.264-250.656-43.872 0-104.8 85.312-144.448 161.76 49.248 11.616 86.112 55.68 86.112 108.416 0 61.536-50.08 111.584-111.616 111.584s-111.616-50.048-111.616-111.584c0-42.176 23.808-78.528 58.432-97.504l22.112-445.504c0.512-10.368 6.016-19.84 14.784-25.408 4.64-2.976 116.704-72.16 384.48-72.16 267.776 0 379.84 69.44 384.48 72.384 8.8 5.632 14.304 15.168 14.784 25.6l19.712 445.664C967.872 497.92 991.232 533.984 991.232 575.744zM831.968 575.744c0 26.24 21.376 47.584 47.616 47.584s47.616-21.344 47.616-47.584c0-26.272-21.376-47.616-47.616-47.616S831.968 549.472 831.968 575.744zM452.512 671.488c0 34.336 27.968 62.272 62.336 62.272s62.304-27.936 62.304-62.272c0-31.84-24.064-58.272-56-61.536-2.112-0.192-4.224-0.64-6.24-1.28-2.016 0.64-4.128 1.056-6.304 1.28C476.64 613.152 452.512 639.616 452.512 671.488zM146.656 623.328c26.272 0 47.616-21.344 47.616-47.584 0-26.272-21.344-47.616-47.616-47.616s-47.616 21.344-47.616 47.616C99.04 601.984 120.384 623.328 146.656 623.328zM850.976 54.432c-35.68-16.416-140.832-55.296-336.128-55.296-195.584 0-300.8 38.848-336.256 55.136L163.584 356.16c40.16-58.432 94.08-114.56 152.992-114.56 64.864 0 131.52 90.176 198.4 268.256 69.408-183.584 138.272-276.608 205.056-276.608 52.736 0 104.352 58.944 144.192 121.312L850.976 54.432z"  horiz-adv-x="1024" />
      
      <glyph glyph-name="flower" unicode="&#58917;" d="M867.388103 437.860698c-16.591887 5.012154-33.967626-4.321422-38.959314-20.821211-9.688663-31.974225-22.997784-62.149479-39.538505-89.701998-57.707306-96.117105-158.449755-151.241586-276.41547-151.241586-117.996414 0-218.759329 55.144948-276.456403 151.282518-16.521279 27.552519-29.80891 57.707306-39.488363 89.620134-5.012154 16.490579-22.438035 25.824155-38.959314 20.821211-16.500812-5.012154-25.824155-22.448268-20.821211-38.959314 11.17348-36.814464 26.545586-71.676459 45.710065-103.619986C245.514693 190.16431699999998 355.673605 124.34219199999995 481.241462 114.927775l0-147.536194c0-17.252943 13.979386-31.232328 31.232328-31.232328s31.232328 13.979386 31.232328 31.232328L543.706119 114.927775c125.523855 9.41544 235.669464 75.217099 298.741965 180.26255 19.174712 31.934317 34.577516 66.836221 45.76123 103.712083C893.211235 415.41243 883.888915 432.848545 867.388103 437.860698zM881.625362 674.595424c-9.445116 22.174022-31.242562 36.804231-55.836703 37.282115l-9.587356 0.091074c-55.643298 0-106.48729-16.714683-151.333684-35.329646C625.685225 743.892697 589.156264 788.758534 551.081087 816.595532c-2.134617 1.839905-4.443196 3.558036-6.944156 5.164626-17.304108 11.041474-38.928614 12.830213-57.767682 4.818749-5.438872-2.287089-10.502192-5.317099-15.077394-9.03784-37.892005-27.369348-75.661214-73.190953-115.027803-139.631154-44.348044 17.954931-94.358041 34.089399-147.96803 34.089399l-9.445116-0.101307c-24.288173-0.488117-46.076408-15.108093-55.521524-37.261649-21.60404-50.701752-30.449499-111.1331-25.600051-174.757163 1.25048-16.389272 14.935154-28.853142 31.110555-28.853142 0.793062 0 1.596358 0.030699 2.409886 0.091074 17.192567 1.311879 30.073946 16.317641 28.762067 33.520441-4.066619 53.375651 3.009544 103.427604 20.48659 144.816247l8.112772 0.080841c52.034097 0 101.95302-19.652596 148.618852-39.783075 14.700817-6.324032 31.842219-0.539282 39.651069 13.470803 40.168862 72.04178 76.688613 119.195729 111.662149 144.165424 0.731664 0.518816 1.026376 1.341554 1.707898 1.932002 0.945535-0.873903 1.952468-1.697665 2.99931-2.449795 34.740222-25.02086 71.00517-72.469522 110.848621-145.040351 7.807826-14.213723 25.193799-20.079314 40.026622-13.532201 44.998867 19.937075 97.56099 41.206494 151.770636 41.206494l8.559956-0.080841c16.490579-39.060621 23.77038-86.204337 21.055548-136.418996-0.935302-17.222243 12.271488-31.94455 29.493731-32.869618 17.090237-1.209548 31.94455 12.261255 32.869618 29.493731C911.129326 569.612395 902.050554 626.6688790000001 881.625362 674.595424zM390.593929 563.969884c-17.252943 0-31.232328-13.979386-31.232328-31.232328l0-30.469965c0-17.252943 13.979386-31.232328 31.232328-31.232328 17.252943 0 31.232328 13.979386 31.232328 31.232328l0 30.469965C421.827281 549.990498 407.846872 563.969884 390.593929 563.969884zM634.363885 563.969884c-17.252943 0-31.232328-13.979386-31.232328-31.232328l0-30.469965c0-17.252943 13.979386-31.232328 31.232328-31.232328s31.232328 13.979386 31.232328 31.232328l0 30.469965C665.597237 549.990498 651.617851 563.969884 634.363885 563.969884zM589.500095 422.529525c-14.304797 9.404184-33.591049 5.38873-43.157939-8.763594-0.132006-0.193405-13.613042-19.753903-34.170241-19.753903-19.98824 0-32.432667 18.117636-33.265638 19.378349-9.181103 14.416338-28.284183 18.808368-42.832528 9.750061-14.650675-9.099239-19.154245-28.354791-10.044774-43.005466 11.214413-18.046005 41.968857-48.587602 86.143962-48.587602 43.961234 0 75.102489 30.317493 86.570681 48.221258C607.962585 394.163477 603.774193 413.125341 589.500095 422.529525zM855.131965 139.800255c-10.279111 13.878079-29.819143 16.805758-43.686988 6.557346L603.228771-7.486252000000036c-13.867846-10.248412-16.805758-29.80891-6.557346-43.686988 6.130627-8.28571 15.575744-12.667507 25.142633-12.667507 6.456039 0 12.95301 1.982144 18.544355 6.110161l208.216205 153.844877C862.441441 106.36167899999998 865.380376 125.92217700000003 855.131965 139.800255zM421.730067-7.486252000000036L213.513862 146.35760200000004c-13.888312 10.248412-33.428344 7.319709-43.686988-6.557346-10.248412-13.878079-7.309476-33.438577 6.557346-43.686988l208.216205-153.844877c5.591345-4.128017 12.088316-6.110161 18.544355-6.110161 9.56689 0 19.012006 4.381797 25.142633 12.667507C438.535825-37.29618500000004 435.597913-17.734663999999952 421.730067-7.486252000000036z"  horiz-adv-x="1024" />
      
      </font>
</defs>
</svg>
